<svg width="301.47mm" height="357.87mm" version="1.1" viewBox="0 0 301.47143 357.86703" xmlns="http://www.w3.org/2000/svg">
 <g transform="translate(35.635 27.144)">
  <path d="m165.45 329.44c-0.0806 0-0.16533 0-0.25001-7e-3 -2.4195-0.13388-4.2663-2.2049-4.1292-4.618 0.0847-1.5134 0.92746-2.8042 2.1412-3.524l-2.4598-9.8005c-0.11291 7e-3 -0.22581 0.0214-0.34276 0.0214-0.0242 0-0.0484 0-0.0726-4e-3 -2.4154-0.13388-4.2623-2.2013-4.1252-4.618 0.12501-2.2965 2.0082-4.0603 4.2664-4.1131l4.5486-24.01c-3.2744-0.89278-5.593-3.9688-5.3914-7.4895 0.1855-3.38 2.6372-6.089 5.7946-6.7628l-3.5808-27.545h-0.0121c-0.0323 0-0.0645 0-0.0968 3e-3 -0.0323 4e-3 -0.0605 7e-3 -0.0927 7e-3h-0.0242c-2.4114-0.13791-4.2623-2.205-4.1252-4.6216 0.0807-1.4779 0.89117-2.734 2.0566-3.4607l-8.1093-18.016c-0.7702 0.27864-1.6009 0.423-2.4638 0.423-0.13307 0-0.27018-4e-3 -0.41131-0.0105-4.0526-0.22945-7.1455-3.697-6.9197-7.7435 0.10888-1.9295 0.95973-3.6369 2.2501-4.8789l-10.605-12.993c-0.70568 0.46938-1.5364 0.74802-2.4316 0.74802-0.0766 0-0.1613-4e-3 -0.23792-7e-3 -2.242-0.1238-3.972-1.9231-4.105-4.1099l-17.025-0.29275c-0.33066 2.1199-2.1453 3.7111-4.3067 3.7111-0.0807 0-0.16533 0-0.25001-7e-3 -0.99198-0.0565-1.8791-0.448-2.5808-1.0476l-20.92 18.694c1.0202 1.3444 1.5888 3.034 1.4839 4.8474-0.21775 3.9087-3.4598 6.9318-7.327 6.9318-0.1371 0-0.27824-3e-3 -0.41534-0.0141-0.46374-0.0282-0.91134-0.10202-1.3468-0.20445l-6.9883 20.885c1.5243 0.75488 2.5364 2.3634 2.4356 4.1736-0.13307 2.3316-2.0727 4.1204-4.3792 4.1204h-0.0565l-3.0566 20.592c3.4195 0.78994 5.8793 3.9405 5.6737 7.56-0.19759 3.5453-2.8872 6.364-6.2705 6.8544l1.2339 19.304c2.3792 0.17258 4.1938 2.2187 4.0607 4.6107-0.13308 2.3284-2.0646 4.1345-4.3672 4.1345-0.0847 0-0.16936-3e-3 -0.25405-7e-3 -0.29033-0.014-0.56857-0.0637-0.84278-0.13428l-3.847 9.4759c0.93957 0.85691 1.5081 2.0989 1.4356 3.4643-0.13307 2.3316-2.0686 4.1381-4.3752 4.1381-0.0806 0-0.16533-4e-3 -0.24598-7e-3 -2.3267-0.13065-4.101-2.0533-4.1172-4.3498l-11.537-3.4219c-0.75004 1.3618-2.1896 2.2791-3.8268 2.2791-0.0807 0-0.1613 0-0.24598-7e-3 -2.4154-0.13753-4.2623-2.205-4.1292-4.6212 0.0686-1.1892 0.6089-2.2404 1.4275-2.988l-8.815-16.768c-0.8952 0.38468-1.8751 0.60325-2.9074 0.60325-0.13307 0-0.26614-4e-3 -0.39921-0.0106-4.0526-0.23308-7.1455-3.6974-6.9197-7.7472 0.17743-3.0937 2.2461-5.6301 5.0204-6.5511l-5.5878-22.831c-0.3847 0.0601-0.77625 0.0952-1.1783 0.0952-0.13065 0-0.26453-3e-3 -0.39881-0.0106-4.0498-0.22945-7.1471-3.697-6.9177-7.7468 0.19033-3.4187 2.6949-6.1491 5.9088-6.7806l-3.9792-34.435c-0.10242 4e-3 -0.20122 4e-3 -0.30364 4e-3 -0.11976 0-0.23953-4e-3 -0.3597-0.0109-4.0498-0.22582-7.1471-3.6933-6.9177-7.7399 0.21856-3.9123 3.457-6.9322 7.3234-6.9322 0.13791 0 0.27905 4e-3 0.42018 0.0109 0.16573 0.0105 0.33147 0.0319 0.49357 0.0528l6.5209-31.35c-3.1941-0.944-5.4414-3.9792-5.2474-7.4468 0.16251-2.8743 1.9618-5.2644 4.4345-6.3306l-10.823-31.468c-0.58229 0.1496-1.1924 0.22944-1.8166 0.22944-0.13791 0-0.27905-4e-3 -0.41655-0.0117-4.0498-0.22824-7.1471-3.695-6.9181-7.7448 0.18711-3.359 2.6106-6.0576 5.7434-6.7495l-5.2704-37.729c-0.15202 8e-3 -0.30727 0.0121-0.45889 0.0121-0.12702 0-0.25364-4e-3 -0.38066-8e-3 -4.0502-0.22981-7.1475-3.6977-6.9181-7.7423 0.21856-3.9115 3.457-6.9318 7.3238-6.9318 0.13751 0 0.27864 4e-3 0.41978 0.0121 0.22582 0.0121 0.44801 0.0363 0.66657 0.0686l7.1016-30.59c-2.8014-1.1614-4.7027-3.9921-4.5228-7.1939 0.21856-3.9074 3.4574-6.9318 7.3201-6.9318 0.14114 0 0.28227 4e-3 0.42018 0.0121 1.2343 0.0726 2.3812 0.44357 3.3687 1.0404l12.212-14.795c-0.71374-0.83069-1.1291-1.9235-1.0605-3.101 0.12904-2.3348 2.0646-4.1373 4.3672-4.1373 0.0847 0 0.16533 4e-3 0.25001 8e-3 1.7864 0.10081 3.2582 1.2622 3.851 2.8308l19.42-4.1978c-0.0605-0.44761-0.0847-0.91134-0.0565-1.3791 0.21776-3.9074 3.4558-6.9318 7.323-6.9318 0.13711 0 0.27824 4e-3 0.41938 0.0121 4.0446 0.22985 7.1455 3.6978 6.9157 7.7464-0.0202 0.39518-0.0847 0.77423-0.16533 1.1492l35.163 10.706c1.0847-2.738 3.7502-4.6454 6.8149-4.6454 0.14114 0 0.27824 4e-3 0.41938 0.0121 4.0526 0.22985 7.1496 3.6978 6.9197 7.7464-0.0202 0.3226-0.0645 0.63713-0.12097 0.95166l17.235 4.7301c0.66939-1.5807 2.2219-2.6776 4.0123-2.6776 0.0807 0 0.16533 4e-3 0.25001 8e-3 1.8549 0.10485 3.3671 1.3549 3.9115 3.0244l18.509-3.3832c-0.0564-0.43953-0.0766-0.88714-0.0524-1.3468 0.21775-3.9074 3.4558-6.9318 7.323-6.9318 0.1371 0 0.27824 4e-3 0.41937 0.0121 3.3228 0.18953 6.0003 2.5606 6.7302 5.6454l25.058-4.5406c-0.0403-0.38711-0.0605-0.78229-0.0363-1.1815 0.21775-3.9074 3.4558-6.9278 7.323-6.9278 0.1371 0 0.27824 4e-3 0.41937 0.0121 4.0526 0.22582 7.1455 3.6937 6.9197 7.7423-8e-3 0.12501-0.0282 0.24195-0.0403 0.36292l20.957 4.0365c0.58874-1.742 2.2219-2.984 4.1292-2.984 0.0807 0 0.1613 4e-3 0.24598 8e-3 2.4195 0.13711 4.2663 2.2058 4.1333 4.6212-0.0605 1.0363-0.49196 1.9557-1.1372 2.6735l16.227 19.207c1.1654-0.76616 2.5525-1.2178 4.0325-1.2178 0.14113 0 0.28229 4e-3 0.41937 0.0121 4.0486 0.22985 7.1455 3.6937 6.9197 7.7423-0.19357 3.4478-2.7421 6.1979-5.9923 6.8028l1.5323 29.651h0.0524 0.0363 0.0363 0.0686c4.0486 0.22985 7.1455 3.6937 6.9197 7.7423-0.21775 3.9115-3.4598 6.9318-7.323 6.9318-0.14113 0-0.27824-4e-3 -0.41936-0.0121-0.21373-0.0121-0.42342-0.0363-0.62908-0.0645l-8.1375 35.819c3.1413 0.97707 5.343 3.9833 5.1495 7.4157-0.21775 3.9099-3.4558 6.9298-7.323 6.9298-0.14114 0-0.27824-4e-3 -0.41938-0.0117-0.78633-0.0444-1.5404-0.21413-2.238-0.48229l-16.231 33.658c2.2945 1.3505 3.7784 3.8998 3.6171 6.7415-0.20969 3.7054-3.1292 6.6011-6.7262 6.8971l0.0726 35.278c3.9639 0.3105 6.9762 3.7324 6.7544 7.7258-0.22179 3.9091-3.4598 6.9322-7.331 6.9322-0.1371 0-0.27824-3e-3 -0.41534-0.0105-0.16533-0.0105-0.32663-0.0355-0.49196-0.0528l-7.9762 38.562c2.8671 1.1327 4.8188 3.9974 4.6373 7.2391-0.22178 3.9091-3.4639 6.9322-7.327 6.9322-0.13711 0-0.27824-7e-3 -0.41938-0.014-0.44357-0.0246-0.87504-0.0952-1.2944-0.19397l-9.0408 21.865c2.0445 1.4077 3.3348 3.8066 3.1816 6.4628-0.21776 3.9091-3.4558 6.9322-7.3189 6.9322-0.14114 0-0.27824-7e-3 -0.41938-0.014-1.1936-0.0633-2.3025-0.41978-3.2663-0.98067l-8.327 9.3593c0.37906 0.6948 0.58471 1.4888 0.54035 2.3352-0.13307 2.332-2.0686 4.1345-4.3712 4.1345-0.0847 0-0.16937-3e-3 -0.25002-7e-3 -1.8025-0.10242-3.2864-1.2771-3.8671-2.8683l-8.4964 0.37057c-0.42341 2.0038-2.1816 3.482-4.2664 3.482m13.585-33.137-11.275 25.058c1.1654 0.73027 1.9396 1.9755 2.0364 3.4078l8.1778-0.35282c-0.0161-0.19397-0.0363-0.38471-0.0242-0.57867 0.12097-2.1836 1.8227-3.8877 3.9316-4.0994l-1.8509-23.252c-0.34679-0.0172-0.67745-0.0879-0.99602-0.18346m4.2825-1.0581c-0.57665 0.56092-1.3025 0.95247-2.105 1.1287l1.863 23.414c0.92343 0.15888 1.738 0.59962 2.363 1.2347l8.069-9.0698c-1.7501-1.436-2.8147-3.6514-2.6776-6.0785 0.0806-1.3654 0.52825-2.6175 1.238-3.6724l-8.7504-6.9568m-17.823 25.435c0.0686 0 0.13308 0 0.1976 4e-3 0.34679 0.0209 0.67342 0.0883 0.98795 0.18346l11.283-25.058c-0.27421-0.16896-0.52422-0.36655-0.75004-0.59237l-12.791 9.8388c0.37905 0.68795 0.58471 1.4856 0.53632 2.3247-0.10485 1.863-1.3589 3.3764-3.0364 3.9159l2.3993 9.5497c0.37502-0.0984 0.7702-0.16574 1.1734-0.16574m-121.62-26.162-7.081 15.988c1.3226 0.81819 2.1775 2.3001 2.0848 3.9579-0.0161 0.25768-0.0605 0.50485-0.11695 0.748l11.251 3.3373c0.34679-1.2488 1.2259-2.2469 2.3711-2.7836l-6.5769-21.135c-0.24195 0.0387-0.49196 0.0633-0.74601 0.0633-0.0766 0-0.14517 0-0.22178-4e-3 -0.3347-0.0209-0.65326-0.0847-0.96376-0.17259m10.396 20.817c0.0645 0 0.13711 4e-3 0.20566 7e-3 0.61293 0.0319 1.1855 0.19034 1.7017 0.44802l3.7502-9.2287c-1.3912-0.80084-2.2945-2.3179-2.1977-4.0288 0.0363-0.66657 0.23389-1.2839 0.53229-1.8307l-10.041-7.3556c-0.37099 0.38105-0.80246 0.69154-1.2864 0.92059l6.5729 21.135c0.24598-0.0423 0.50002-0.0673 0.76213-0.0673m-27.223-26.455c-0.39114 2.0215-1.6049 3.7292-3.2703 4.7873l8.7706 16.651c0.59681-0.30003 1.2662-0.4835 1.9799-0.4835 0.0766 0 0.1492 4e-3 0.22178 7e-3 0.3347 0.0177 0.6573 0.0811 0.9678 0.17298l7.077-15.988c-1.2259-0.76174-2.0364-2.0953-2.0687-3.6159l-13.678-1.5312m139.14-9.9021-4.5204 23.915c0.80246 0.20485 1.5041 0.63511 2.0525 1.2065l12.759-9.8142c-0.40728-0.7089-0.62503-1.538-0.57664-2.4199 0.0685-1.2315 0.64519-2.3106 1.5081-3.0586l-6.9479-10.668c-1.0444 0.56816-2.234 0.89601-3.4921 0.89601-0.1371 0-0.27823-7e-3 -0.41534-0.014-0.125-7e-3 -0.24598-0.0282-0.36695-0.0419m41.3-2.974-23.227 14.34c0.27824 0.61735 0.43147 1.2948 0.39115 2.0142-0.0444 0.72705-0.27824 1.39-0.61697 1.9755l8.7625 6.9431c1.3468-1.4428 3.2623-2.3356 5.3632-2.3356 0.1371 0 0.27824 4e-3 0.41534 0.0106 0.97586 0.0565 1.8912 0.30001 2.726 0.69519l8.9359-21.639c-1.0726-0.44802-2.0082-1.1396-2.7501-2.0037m-151.52 1.8836-7.6899 9.4404c0.78633 0.8468 1.2501 1.9932 1.1815 3.2348-0.0363 0.66334-0.23388 1.2807-0.53631 1.8312l10.045 7.3556c0.60487-0.62825 1.3872-1.069 2.2703-1.2489l-1.238-19.326c-0.0605 0-0.12097 4e-3 -0.18146 4e-3 -0.0363 0-0.0726 0-0.10484-4e-3 -1.3993-0.0774-2.6735-0.55002-3.7462-1.2876m135.59-22.122-9.5005 32.36c0.621 0.27863 1.1614 0.69519 1.5848 1.2101l23.142-14.291c-0.746-1.2279-1.1452-2.6848-1.0565-4.2264 0.11291-2.0038 1.0202-3.7748 2.3993-5.0269l-10.561-11.434c-1.2501 0.98071-2.8227 1.5662-4.5164 1.5662-0.14114 0-0.27824-4e-3 -0.41937-0.0106-0.36696-0.0214-0.72182-0.0774-1.0726-0.14798m-159.41-2.4695-9.3755 27.449c2.6856 1.1678 4.5083 3.8736 4.4115 6.9536l13.662 1.5344c0.35082-1.3686 1.3388-2.4554 2.613-2.9703l-8.2948-32.844c-0.40728 0.0669-0.82262 0.10203-1.246 0.10203-0.12904 0-0.25405-3e-3 -0.38309-0.0106-0.47582-0.0246-0.94359-0.10242-1.3872-0.21492m155.82 0.5819-15.13 13.406c1 1.3372 1.5565 3.0199 1.4598 4.8192-0.12904 2.2082-1.2218 4.1309-2.8388 5.3902l6.956 10.675c0.57261-0.27178 1.2057-0.43752 1.8751-0.43752 0.0806 0 0.15323 4e-3 0.22985 7e-3 0.14114 0.0106 0.27421 0.046 0.41131 0.0633l9.4884-32.363c-0.92343-0.35647-1.7541-0.88915-2.4517-1.5593m-142.79 32.061c0.0524 0 0.10485 0 0.1613 4e-3 0.74197 0.0423 1.4235 0.28588 2.0203 0.64921l7.6939-9.4476c-1.496-1.4356-2.3792-3.482-2.2542-5.7116 0.0887-1.5872 0.68149-3.0231 1.6009-4.1696l-15.67-15.515c-0.70569 0.60647-1.5243 1.0795-2.4154 1.3795l8.2907 32.847c0.18953-0.0214 0.37905-0.0355 0.57261-0.0355m-25.312-5.8068c0.12904 0 0.26211 4e-3 0.39518 0.0108 0.47986 0.0282 0.94763 0.102 1.3912 0.21493l9.3755-27.45c-2.0445-0.88554-3.5889-2.6671-4.1696-4.8261l-8.7706 1.6122c0.03226 0.37743 0.05242 0.75528 0.03226 1.1468-0.1734 3.0973-2.2461 5.6338-5.0204 6.5544l5.585 22.832c0.38712-0.0633 0.7823-0.0952 1.1815-0.0952m147.11-15.787c0.13307 0 0.26614 3e-3 0.40325 0.014 1.8267 0.10245 3.4518 0.86416 4.6696 2.0388l15.13-13.406c-1.0041-1.3368-1.5646-3.0232-1.4598-4.8224 0.0444-0.85045 0.24195-1.6545 0.54842-2.3989l-20.808-10.668c-0.58874 0.8323-1.4436 1.4392-2.4396 1.7073l3.5889 27.545c0.12097-7e-3 0.24195-0.0106 0.36695-0.0106m-106.2-23.142-19.541 4.0675c0.0565 0.43389 0.0766 0.87466 0.0524 1.3226-0.0968 1.6513-0.72987 3.1364-1.7219 4.3075l15.654 15.494c1.3025-1.1819 3.0364-1.8944 4.9115-1.8944 0.1371 0 0.2742 3e-3 0.41534 0.0106l0.0807 0.0106 3.0566-20.584c-1.3589-0.39519-2.4396-1.4218-2.9074-2.734m158.97-17.173-20.989 19.95c1.1009 1.365 1.7299 3.122 1.6251 5.0128-0.10081 1.771-0.81859 3.355-1.9315 4.5652l10.63 11.515c1.1533-0.74803 2.5203-1.1856 3.98-1.1856 0.13711 0 0.27421 4e-3 0.41535 0.014 0.39518 0.0214 0.77826 0.0815 1.1573 0.16616l7.944-38.464c-1.0686-0.3105-2.0324-0.85367-2.8308-1.5735m-208.86 19.057c0.10605 0 0.2117 4e-3 0.31776 0.0109 3.2461 0.18307 5.8753 2.4517 6.6737 5.4289l8.7787-1.6086c-0.0403-0.37381-0.0564-0.75851-0.0363-1.1501 0.12501-2.1941 1.2057-4.1026 2.8066-5.3624l-21.285-32.247c-0.49761 0.22582-1.0267 0.39518-1.5771 0.50083l3.976 34.438c0.11614-7e-3 0.22904-0.0108 0.34558-0.0108m172.76-33.017-18.388 19.77c0.66939 0.81819 1.0565 1.8694 0.99602 3.0126-0.0282 0.41978-0.12501 0.81496-0.25808 1.196l20.812 10.668c1.0686-1.7283 2.8388-2.9562 4.8833-3.3441l-3.1574-29.729c-0.0968 7e-3 -0.19759 7e-3 -0.2984 7e-3 -0.15324 0-0.30647-4e-3 -0.4597-0.0141-1.5686-0.0883-2.9881-0.66334-4.1292-1.5666m-144.8-1.4005-3.4679 30.314c2.7138 0.53269 4.8551 2.5469 5.6172 5.1256l19.566-4.0708c-0.0121-0.18025-0.0363-0.3601-0.0242-0.5468 0.0686-1.2101 0.621-2.2755 1.4598-3.0235l-19.316-28.734c-1.0646 0.59963-2.2864 0.94199-3.5849 0.94199-0.0847 0-0.16533-4e-3 -0.25001-7e-3m154.33 32.576c0.0968 0 0.19356 0 0.29034 7e-3 1.7299 0.0988 3.2865 0.79037 4.4841 1.8626l20.989-19.946c-1.1089-1.369-1.734-3.126-1.6291-5.0204 0.0323-0.58914 0.14516-1.1533 0.30243-1.6969l-22.82-8.925c-0.98392 2.0142-2.859 3.4889-5.0849 3.9579l3.1615 29.764c0.10484-4e-3 0.20565-4e-3 0.30646-4e-3m-161.4-39.3-19.32 0.0528c-0.1734 2.3529-1.4412 4.3672-3.2756 5.5846l21.236 32.17c1.0525-0.58229 2.2582-0.91013 3.5324-0.91013 0.0807 0 0.1613 4e-3 0.24194 4e-3l3.476-30.311c-3.2098-0.63148-5.6212-3.3304-5.8914-6.5898m14.416 1.2521c-0.40728 1.563-1.3186 2.907-2.5324 3.8772l19.324 28.748c0.58874-0.28913 1.238-0.46213 1.9275-0.46213 0.0806 0 0.1613 0 0.24194 7e-3 0.19759 7e-3 0.38309 0.0528 0.57261 0.0883l6.9883-20.906c-2.7622-1.1819-4.6293-3.9901-4.4478-7.1612 4e-3 -0.0956 0.0202-0.18348 0.0282-0.27904l-22.102-3.9123m115.7 25.026c0.0726 0 0.1492 4e-3 0.22582 7e-3 0.85085 0.0456 1.621 0.34558 2.2662 0.79722l18.38-19.766c-1.125-1.2347-1.8348-2.8542-1.9154-4.618l-24.554-0.0669c-0.21372 2.5296-1.6896 4.6635-3.7784 5.814l8.0972 18.034c0.40728-0.12339 0.83472-0.20122 1.2783-0.20122m39.514-46.436-9.0609 16.482c2.0364 1.4073 3.3187 3.7994 3.1695 6.4523-0.0323 0.58874-0.14517 1.1533-0.30647 1.6969l22.824 8.925c0.5968-1.2206 1.5243-2.24 2.6493-2.963l-16.206-30.554c-0.4718 0.17299-0.97989 0.27179-1.5081 0.27179-0.0806 0-0.1613-4e-3 -0.24598-7e-3 -0.46777-0.0282-0.90328-0.14436-1.3146-0.30324m16.618-9.7505-10.843 4.5539c0.11694 0.43753 0.18549 0.89279 0.16129 1.369-0.0806 1.3759-0.79439 2.5505-1.8307 3.2949l16.219 30.568c0.71778-0.30687 1.488-0.50446 2.2985-0.5714l-0.0686-35.278c-2.609-0.20444-4.8027-1.7582-5.9358-3.9365m-141.24 9.1436-31.014 17.138c0.4718 1.0408 0.70971 2.2086 0.64116 3.4292-4e-3 0.0988-0.0242 0.19033-0.0282 0.27864l22.102 3.9159c0.82666-3.182 3.722-5.4858 7.1012-5.4858 0.1371 0 0.27421 3e-3 0.41534 0.0141 0.23792 0.0141 0.4718 0.0387 0.70568 0.0738l3.9196-16.443c-1.5969-0.51858-2.9437-1.563-3.8429-2.9211m83.04-5.3797-7.7948 21.488c2.3792 1.09 4.0526 3.4078 4.2623 6.1027l24.606 0.0673c0.25405-2.1872 1.4517-4.0571 3.1615-5.2212l-14.686-23.446c-1.7702 0.99118-3.8026 1.5626-5.9479 1.5626-0.22985 0-0.4597-7e-3 -0.69359-0.0178-1.0121-0.0597-1.984-0.25042-2.9074-0.53592m-78.048 8.5831-3.9196 16.443c1.0605 0.34236 2.0082 0.91376 2.7905 1.6582l20.916-18.697c-0.51615-0.75851-0.80246-1.6791-0.75407-2.6671l-10.835-2.0493c-0.85488 3.1397-3.73 5.3974-7.0689 5.3974-0.14114 0-0.28228-4e-3 -0.41938-0.0109-0.24195-0.0141-0.47583-0.0387-0.70971-0.0738m-50.369-11.406-21.237 23.15c1.2771 1.2029 2.1074 2.8542 2.2687 4.6885l19.328-0.0528c0.25001-3.2066 2.5324-5.789 5.5083-6.5443l-3.2824-20.471c-0.0968 8e-4 -0.19759 0.0173-0.29436 0.0173-0.0202 0-0.0323-5.3e-4 -0.0524-2e-3 -0.83876-0.0484-1.5969-0.34154-2.238-0.78592m121.64-2.4332-18.094 9.934c0.21372 0.56455 0.32663 1.1747 0.2863 1.8134-0.0565 1.0017-0.45567 1.8944-1.0646 2.6001l10.626 13.039c1.1936-0.82544 2.6332-1.3126 4.1776-1.3126 0.1371 0 0.27421 4e-3 0.41131 0.0109 0.52825 0.0315 1.0404 0.11976 1.5283 0.25364l7.7988-21.487c-2.3711-0.98917-4.347-2.6997-5.6696-4.8506m35.127 26.419c0.13711 0 0.27825 3e-3 0.41938 0.0141 0.97586 0.0528 1.8912 0.29961 2.726 0.69479l9.0408-16.443c-1.1452-0.84682-1.859-2.2332-1.7702-3.7607 0.0161-0.20485 0.0565-0.39881 0.0928-0.59277l-23.949-8.2032c-0.89117 2.2412-2.4195 4.1381-4.3551 5.4878l14.714 23.483c0.93957-0.43752 1.984-0.68068 3.0808-0.68068m-132.08-34.473-13.63 32.336c1.1089 0.57866 2.0404 1.4287 2.726 2.4554l31.014-17.134c-0.47583-1.0408-0.70972-2.2118-0.6452-3.4328 0.10888-1.859 0.90327-3.5115 2.113-4.739l-9.819-11.404c-2.0928 1.6642-4.726 2.6606-7.573 2.6606-0.22582 0-0.45567-7e-3 -0.68956-0.0202-1.2259-0.0694-2.3993-0.32219-3.4961-0.7214m-42.381 0.58672-6.5177 31.343c0.73754 0.21856 1.4218 0.5468 2.0428 0.96658l21.29-23.211c-0.68552-0.82061-1.0767-1.8844-1.0121-3.0356 0.0363-0.63915 0.21372-1.2335 0.49196-1.7662l-9.7384-6.8745c-1.3549 1.6194-3.3792 2.6429-5.6253 2.6429-0.1371 0-0.27824-4e-3 -0.41938-0.0121-0.1734-9e-3 -0.34276-0.0339-0.51212-0.0532m25.425 30.92c0.11291 0 0.23388 4e-3 0.35082 0.0105 0.66133 0.0355 1.2864 0.16614 1.8832 0.36373l13.634-32.34c-1.7582-0.84278-3.2663-2.0945-4.4276-3.6224l-12.807 8.9811c0.3468 0.67383 0.54035 1.4344 0.496 2.2441-0.10888 1.886-1.3993 3.4131-3.105 3.932l3.2744 20.463c0.23388-0.0214 0.46777-0.0319 0.70165-0.0319m68.943-41.644c-0.9194 0.57584-1.9678 0.94682-3.0929 1.0678l0.66535 23.586c2.0404 0.22541 3.6292 1.8239 3.8671 3.824l17.077 0.29639c0.18146-0.86093 0.61293-1.6158 1.2138-2.2013l-19.731-26.573m-7.5407 0.13953-13.017 18.942c1.7622 1.436 2.8389 3.6599 2.6977 6.1043-4e-3 0.1238-0.0242 0.24356-0.0323 0.36736l10.851 2.0529c0.51212-1.5275 1.8267-2.6671 3.4276-2.928l-0.66132-23.572-0.0242-2e-3c-1.1855-0.0653-2.2824-0.41333-3.2421-0.96538m35.828 2.1513c-0.68955 1.2795-1.992 2.1546-3.4962 2.2715l-1.1694 20.85c1.0968 0.2113 2.0283 0.82544 2.6614 1.6827l18.106-9.9412c-0.88715-1.8118-1.3388-3.8635-1.2178-6.0184 0.0565-1.0618 0.26614-2.0735 0.57664-3.0389l-15.46-5.806m-25.175-6.3177c-0.40728 1.3045-1.1654 2.4497-2.1654 3.3244l19.731 26.566c0.53229-0.29276 1.1251-0.46898 1.7582-0.51858l1.1734-20.847c-2.1211-0.41332-3.6655-2.3154-3.5405-4.5292 4e-3 -0.0468 0.0161-0.0895 0.0202-0.13509l-16.977-3.8611m86.029-6.6765-23.449 16.12c1.2702 2.0509 1.9517 4.4954 1.8065 7.0862-0.0524 0.93513-0.21775 1.8324-0.46777 2.6965l23.937 8.1984c0.69358-1.386 2.1049-2.3187 3.7179-2.3888l2.484-27.031c-3.2905-0.45042-6.1293-2.1932-8.0286-4.6813m9.194 4.7865-2.4719 27.022c1.1936 0.27461 2.1896 1.0198 2.7864 2.0316l10.827-4.5438c-0.27824-0.84561-0.41131-1.7557-0.35889-2.6989 0.14113-2.4828 1.5001-4.6071 3.472-5.8249l-8.7424-17.057c-1.5323 0.69721-3.23 1.0811-5.0124 1.0811-0.16533 0-0.33066-4e-3 -0.50003-0.0101m-109.43 1.0686-24.574 2.655c0.0403 0.51696 0.0524 1.0408 0.0242 1.5727-0.17742 3.1832-1.5727 6.0011-3.6978 8.0573l9.8271 11.405c1.2178-0.89037 2.7138-1.4114 4.3228-1.4114 0.1371 0 0.27823 4e-3 0.41534 0.0117 1.1815 0.0677 2.2824 0.41656 3.2421 0.969l13.017-18.944c-1.3146-1.0763-2.2461-2.5949-2.5767-4.3151m-62.87 17.509h0.0202c1.1775 0.0661 2.2138 0.59761 2.9598 1.4009l12.811-8.9823c-1.2702-2.0477-1.9436-4.4857-1.7985-7.0701 0.1613-2.8739 1.3146-5.4555 3.0969-7.4435l-18.303-17.713c-0.95166 0.81899-2.113 1.3928-3.3832 1.6416l4.4559 38.174c0.0484 0 0.0927-7e-3 0.14113-7e-3m-7.9964-38.3-8.3714 22.437c2.6372 1.2376 4.3913 3.9784 4.222 7.0633-0.0686 1.2142-0.43551 2.3396-1.0121 3.3203l9.7424 6.8774c0.56051-0.60003 1.2823-1.0343 2.0969-1.2476l-4.4559-38.181c-0.10081 4e-3 -0.20162 6e-3 -0.30647 6e-3 -0.11291 0-0.22581-2e-3 -0.33872-8e-3 -0.54439-0.031-1.0726-0.12541-1.5767-0.26615m214.24-2.0578-21.549 7.0334c0.22582 1.0492 0.32663 2.1428 0.26211 3.2667-0.23388 4.2639-2.6453 7.8839-6.089 9.869l8.7424 17.059c0.87101-0.3613 1.8186-0.56535 2.8106-0.56535 0.1371 0 0.2742 4e-3 0.40727 0.0117 0.79036 0.0448 1.5364 0.21372 2.234 0.48389l16.239-33.659c-1.371-0.80287-2.4437-2.0332-3.0566-3.4994m-102.4 1.869c-0.99198 0.56415-2.1291 0.90408-3.3308 0.94844l-1.2541 20.816c2.109 0.41978 3.6453 2.3187 3.5203 4.526-0.0121 0.2484-0.0605 0.4851-0.11291 0.71979l15.46 5.8043c0.87102-2.013 2.2542-3.7409 3.9921-5.0099l-18.275-27.805m34.098-4.2841-5.7704 30.099c2.7703 0.6702 5.1535 2.2771 6.8108 4.4543l23.453-16.121c-1.2743-2.0509-1.9557-4.4946-1.8106-7.0858 0.0887-1.5787 0.48389-3.0675 1.113-4.4208l-16.985-9.99c-1.3348 1.8924-3.5324 3.1179-5.9922 3.1179-0.1371 0-0.27824-4e-3 -0.41534-0.0121-0.13711-8e-3 -0.27018-0.0278-0.40325-0.0415m-6.3753-5.8265-24.005 3.3292c0.0121 0.26695 0.0161 0.53591 0 0.8077-0.12501 2.1622-1.1734 4.0478-2.738 5.3063l18.287 27.82c1.8227-1.0746 3.9357-1.69 6.1818-1.69 0.22985 0 0.4597 7e-3 0.68955 0.0198 0.34679 0.0202 0.68955 0.0613 1.0323 0.10928l5.7664-30.095c-2.6574-0.73916-4.6656-2.9219-5.214-5.6076m-36.433 8.9968-19.118 16.403c0.96376 1.3214 1.492 2.9699 1.3912 4.7277-8e-3 0.21412-0.0363 0.4226-0.0645 0.63108l16.981 3.8599c0.59277-1.5674 2.0364-2.6816 3.7502-2.8122l1.2581-20.804c-1.6332-0.20162-3.0889-0.92948-4.1978-2.0053m-51.039-2.1316-11.065 17.723c2.6735 1.8324 4.5648 4.6926 5.1253 7.981l24.59-2.6586c-8e-3 -0.20122-0.0121-0.40445 4e-3 -0.6093 0.125-2.3106 1.3146-4.3095 3.0606-5.5588l-10.041-16.769c-1.7219 0.92021-3.6736 1.4485-5.7382 1.4485-0.22582 0-0.45567-6e-3 -0.68552-0.0189-1.9114-0.10726-3.6857-0.66092-5.2503-1.5384m-63.572 25.176c0.1371 0 0.27421 4e-3 0.41131 0.0113 0.55245 0.0314 1.0807 0.12661 1.5928 0.27259l8.3674-22.439c-2.6453-1.2327-4.4075-3.976-4.2341-7.0657 0.02421-0.39921 0.08468-0.78592 0.16936-1.1658l-15.064-4.8067c-0.72665 1.7719-2.1203 3.182-3.8522 3.9393l10.831 31.473c0.56858-0.14315 1.1654-0.21896 1.7783-0.21896m57.519-33.692-36.716 4.6337c8e-3 0.21897 8e-3 0.43995 0 0.66213-0.0968 1.6461-0.72987 3.1276-1.7138 4.3002l18.311 17.718c2.1775-2.0005 5.0728-3.2139 8.2222-3.2139 0.22985 0 0.46373 7e-3 0.69358 0.0198 1.8872 0.10485 3.6332 0.6452 5.1817 1.4977l11.069-17.73c-2.6251-1.8259-4.4801-4.6454-5.0486-7.8875m32.034 24.022c0.13711 0 0.27421 4e-3 0.41534 0.0117 1.863 0.10565 3.5163 0.90246 4.7462 2.1207l19.11-16.394c-0.99602-1.3331-1.5485-3.0082-1.4477-4.7986 4e-3 -0.0318 8e-3 -0.0625 0.0121-0.094l-30.941-4.6192c-0.63713 3.2522-2.5525 6.0084-5.1857 7.7661l10.041 16.771c0.98392-0.48834 2.0888-0.76294 3.2502-0.76294m111.78-28.822-4.4276 13.053c3.3106 1.363 5.8551 4.13 6.956 7.5266l21.481-7.0112c-0.15726-0.67785-0.22984-1.3868-0.18952-2.119 0.0484-0.88836 0.26614-1.7275 0.5968-2.5001l-20.041-10.673c-0.80246 1.1049-2.1009 1.8211-3.5445 1.8211-0.0847 0-0.16533-2e-3 -0.25001-7e-3 -0.20162-0.0113-0.39114-0.054-0.58067-0.0911m-3.2986-2.807-32.522 6.8604c0.0565 0.43873 0.0766 0.88916 0.0524 1.348-0.0565 1.0009-0.31453 1.9445-0.72584 2.7953l16.92 9.9549c2.1332-3.624 6.0608-6.0269 10.496-6.0269 0.23388 0 0.46373 6e-3 0.69358 0.0198 0.98795 0.0552 1.9356 0.23711 2.8429 0.51051l4.4115-13.018c-1.0081-0.50446-1.7904-1.3819-2.1695-2.4445m-63.709-10.815-10.343 17.834c1.4598 1.0456 2.5001 2.603 2.8953 4.395l24.017-3.3324c-4e-3 -0.23147-4e-3 -0.46414 8e-3 -0.69964 0.10081-1.7142 0.77826-3.2538 1.8348-4.4462l-14.138-14.298c-0.73794 0.55446-1.6412 0.89319-2.6211 0.89319-0.0806 0-0.1613-2e-3 -0.24195-7e-3 -0.50002-0.029-0.96779-0.15686-1.4114-0.33873m-39.349-5.5055-15.989 14.189c1.8267 2.2666 2.859 5.1801 2.6816 8.3121-4e-3 0.17663-0.0323 0.34559-0.0565 0.51898l30.949 4.6059c0.43953-1.8638 1.5727-3.4369 3.1131-4.4506l-12.255-21.569c-0.94763 0.44519-2.0041 0.69318-3.109 0.69318-0.1371 0-0.27824-4e-3 -0.41938-0.0117-1.9477-0.10928-3.6736-0.97505-4.9156-2.2884m-56.785 12.197-18.372 12.936c0.39922 0.68874 0.68552 1.4497 0.84682 2.2525l36.703-4.6337c-0.0363-0.53309-0.0564-1.0718-0.0282-1.6194 0.0806-1.3404 0.37502-2.613 0.84278-3.7966l-13.029-5.9084c-0.76617 1.3021-2.1654 2.1723-3.7623 2.1723-0.0806 0-0.16533-2e-3 -0.24598-7e-3 -1.1775-0.0653-2.2138-0.59519-2.9558-1.3952m173.46-20.8-7.4157 19.608c1.4436 0.78513 2.3912 2.3396 2.2945 4.0861-0.0242 0.44599-0.1371 0.86335-0.28227 1.2626l20.053 10.675c0.70165-1.0964 1.6856-1.9872 2.8469-2.5776l-13.622-33.155c-0.67745 0.20565-1.3912 0.31856-2.1332 0.31856-0.12903 0-0.26211-4e-3 -0.39518-0.0121-0.46373-0.0242-0.91133-0.10081-1.3468-0.20566m-206.64-2.0001-16.053 24.452c1.8344 1.4311 2.9635 3.705 2.8223 6.2023-0.0246 0.42825-0.09194 0.84319-0.18711 1.2464l15.047 4.8019c0.97183-2.4485 3.2179-4.2236 5.8753-4.566l-1.3064-30.436h-0.0524-0.16533-0.16936c-0.0887 0-0.18146 0-0.27018-4e-3 -2.0283-0.11694-3.9075-0.72584-5.5406-1.6977m8.7948 32.083c0.0242 0 0.0444 5.3e-4 0.0645 2e-3 2.1372 0.11856 4.0002 1.1468 5.2624 2.6804l18.376-12.938c-0.35083-0.67463-0.54438-1.4388-0.50003-2.2509 0.0524-0.91094 0.37905-1.7392 0.89521-2.4118l-18.505-18.592c-1.8993 1.7138-4.343 2.8227-7.0084 3.0768l1.3065 30.433c0.0202 5.3e-4 0.0363 8e-4 0.0524 8e-4h0.0282c8e-3 -5.3e-4 0.0202-5.3e-4 0.0282-5.3e-4m222.83-39.127-15.9 1.9074c0 0.14113 4e-3 0.28227-4e-3 0.42744-0.1492 2.7461-1.8025 5.0486-4.105 6.1777l13.614 33.135c0.70568-0.22581 1.4557-0.35284 2.234-0.35284 0.13307 0 0.27017 4e-3 0.40728 0.0121 0.21372 0.0105 0.4234 0.0359 0.62503 0.0653l8.1294-35.823c-2.5525-0.79842-4.472-2.9316-5.0002-5.5487m-116.94 39.607c0.1371 0 0.27421 4e-3 0.41131 0.0113 1.0202 0.0573 1.984 0.32381 2.8469 0.75246l10.323-17.8c-1.0807-0.8444-1.746-2.1787-1.6815-3.6494l-24.211-4.4192c-0.4597 1.7307-1.5404 3.1921-2.9679 4.1663l12.271 21.583c0.92343-0.41292 1.9396-0.64519 3.0082-0.64519m46.377-25.604-5.4559 20.826c2.238 0.77262 3.9599 2.5888 4.6333 4.8406l32.542-6.8665c-8e-3 -0.18468-0.0363-0.36615-0.0242-0.55648 0.0444-0.81818 0.32663-1.561 0.75407-2.1961l-21.485-19.207c-2.2017 2.1287-5.1857 3.4357-8.452 3.4357-0.22985 0-0.45567-7e-3 -0.68955-0.0198-0.62503-0.0351-1.2299-0.13106-1.8227-0.25607m-8.0044-5.7527-17.981 9.3827c0.19356 0.53873 0.2863 1.123 0.25404 1.7299-0.0524 0.91698-0.37905 1.7477-0.90327 2.4239l14.138 14.298c1.2702-1.0392 2.8872-1.6642 4.6373-1.6642 0.13711 0 0.27421 4e-3 0.41535 0.0113 0.2863 0.0165 0.56454 0.0528 0.84278 0.0984l5.4519-20.824c-2.9195-0.91698-5.3511-2.8864-6.8552-5.4551m-98.307-5.7946-15.424 21.21c0.92344 0.85771 1.488 2.0912 1.4114 3.4474-0.0161 0.30082-0.0605 0.59439-0.1371 0.87585l13.049 5.9136c1.7017-3.3127 4.8672-5.7112 8.6012-6.4044l-3.2744-23.982c-0.14114 8e-3 -0.28228 0.0121-0.42341 0.0121-0.12904 0-0.26211-4e-3 -0.39115-0.0121-1.2501-0.0686-2.4114-0.45163-3.4115-1.0605m9.8473 24.83c0.18549 0 0.37501 5e-3 0.56857 0.0161 3.1574 0.17823 5.96 1.5545 8.0125 3.6502l16.029-14.229c-0.87504-1.2872-1.3549-2.8554-1.2622-4.5293 0.0363-0.66052 0.16533-1.2896 0.36292-1.8904l-23.316-10.561c-1.0122 1.8227-2.7703 3.1574-4.843 3.6131l3.2744 23.986c0.38712-0.0339 0.77827-0.0556 1.1734-0.0556m-85.106 2.6602c0.11654 0 0.23308 3e-3 0.35284 9e-3 1.1255 0.0649 2.1767 0.3855 3.1046 0.89521l16.06-24.459c-3.2058-2.359-5.1978-6.2302-4.9599-10.501 0.05242-0.91537 0.21372-1.7985 0.45164-2.6453l-15.616-5.2783c-0.92424 2.1493-2.8364 3.7502-5.1402 4.2623l5.2599 37.731c0.16251-9e-3 0.32461-0.0145 0.48672-0.0145m221.62-27.127-25.392 0.12097c-0.19356 2.6937-1.246 5.1212-2.8752 7.0366l21.453 19.188c0.77423-0.65609 1.7622-1.0525 2.8429-1.0525 0.0766 0 0.1613 2e-3 0.24195 6e-3 0.25002 0.0145 0.49196 0.0609 0.72988 0.11452l7.3996-19.567c-2.3751-1.0162-4.0809-3.23-4.3994-5.8471m-149.84-5.9837-32.889 0.24195c-4e-3 0.0645 0 0.125-4e-3 0.18549-0.16129 2.9114-1.3347 5.5245-3.1614 7.5205l18.521 18.604c0.73794-0.5589 1.6493-0.90126 2.6372-0.90126 0.0766 0 0.15727 2e-3 0.23792 6e-3 0.63309 0.0367 1.2218 0.2113 1.7541 0.48349l15.432-21.22c-1.4194-1.2218-2.359-2.9679-2.5284-4.9196m70.278-13.226-21.001 23.896c1.3751 1.4235 2.1816 3.3832 2.0606 5.5132-8e-3 0.10766-0.0242 0.2113-0.0323 0.31775l24.235 4.4224c0.4597-1.4049 1.5969-2.4711 3.0163-2.8526-0.96376-7.5863-2.6977-21.333-3.7018-29.849-0.10081 4e-3 -0.19758 4e-3 -0.29839 4e-3 -0.10082 0-0.20163 0-0.31051-8e-3 -1.492-0.0806-2.851-0.6089-3.9679-1.4436m9.6255 31.134c8e-3 0 0.0202 5.3e-4 0.0282 1e-3 1.3831 0.077 2.5687 0.80125 3.3107 1.8497l17.993-9.3912c-0.81052-1.7582-1.2178-3.726-1.1049-5.7906 0.1129-1.984 0.70164-3.8228 1.6372-5.4317l-21.287-13.783c-1.0807 1.4073-2.6574 2.3953-4.4518 2.734 0.89521 7.5205 2.4074 19.634 3.7018 29.821 0.0282 0 0.0605-2e-3 0.0887-5e-3 0.0282-2e-3 0.0564-5e-3 0.0847-5e-3m-55.753-36.651-11.553 13.017c1.363 1.4194 2.1614 3.3711 2.0404 5.4882-0.0403 0.72584-0.18953 1.4194-0.42341 2.0686l23.287 10.545c0.84279-1.613 2.2622-2.8671 3.972-3.4961l-7.0125-25.235c-0.87505 0.19759-1.7824 0.30647-2.7138 0.30647-0.21775 0-0.4355-4e-3 -0.65729-0.0161-2.6413-0.1492-5.0285-1.1372-6.9399-2.6776m19.88 27.171c0.12904 0 0.25808 4e-3 0.39115 0.0121 1.492 0.0847 2.855 0.61293 3.972 1.4436l20.997-23.896c-1.3751-1.4194-2.1816-3.3832-2.0606-5.5124 8e-3 -0.17743 0.0363-0.35082 0.0605-0.52825l-23.836-5.0648c-1.0525 4.0123-4.093 7.1657-7.952 8.444l7.0165 25.243c0.4597-0.0887 0.93149-0.14114 1.4114-0.14114m76.33-27.977-4.0042 13.331c4.6696 1.6493 7.9722 6.0326 8.1093 11.138l25.324-0.12097c0-0.0403-4e-3 -0.0847 0-0.12501 0.0726-1.3106 0.48793-2.5162 1.1533-3.5486l-26.917-21.795c-0.78633 0.73794-1.8388 1.1936-2.988 1.1936-0.0847 0-0.16937 0-0.25001-4e-3 -0.14517-0.0121-0.28631-0.0484-0.42745-0.0686m61.35-16.315-20.307 34.994c1.5485 1.117 2.6372 2.8187 2.9598 4.7623l15.848-1.8993c-8e-3 -0.22985-8e-3 -0.4597 4e-3 -0.68955 0.20161-3.5808 2.9356-6.4116 6.3632-6.8633l-1.5243-29.586c-0.0968 0-0.19354 4e-3 -0.29032 4e-3 -0.0968 0-0.18952-4e-3 -0.28631-8e-3 -0.98795-0.0564-1.9235-0.30646-2.7663-0.71374m-38.78-2.0283-17.981 12.114c0.31856 0.65326 0.50405 1.3872 0.45566 2.1695-0.0403 0.74197-0.28227 1.4194-0.64115 2.0122l26.892 21.783c0.97586-1.0847 2.2622-1.8751 3.7099-2.23l-6.1414-33.344c-0.26211 0.0282-0.52826 0.0444-0.79843 0.0444-0.11694 0-0.23792-4e-3 -0.35486-0.0121-2.0686-0.11694-3.8913-1.0807-5.1414-2.5364m-156.07 16.924-21.521 14.368c1.0242 1.6735 1.6493 3.605 1.7662 5.6616l32.881-0.24598c0.14921-2.0001 1.0807-3.7582 2.488-4.9882l-10.267-13.847c-0.621 0.3347-1.3267 0.53229-2.0767 0.53229-0.0766 0-0.15727 0-0.23388-4e-3 -1.2178-0.0686-2.2864-0.62906-3.0364-1.4759m170.33 18.715c0.10888 0 0.22178 0 0.3347 8e-3 1.0283 0.0564 1.9961 0.32663 2.859 0.75811l20.303-34.982c-1.7662-1.2339-2.9477-3.2139-3.1131-5.464l-21.787-0.12098c-0.27017 3.1453-2.488 5.6737-5.3954 6.456l6.1455 33.373c0.21372-0.0202 0.43148-0.0282 0.65326-0.0282m-40.393-20.557c-7.9722 0.83875-24.989 2.6251-34.804 3.609 0 0.16936 8e-3 0.33469 0 0.50406-0.0645 1.1089-0.37905 2.1453-0.87504 3.0647l21.291 13.787c2.2219-3.0848 5.839-5.0769 9.8795-5.0769 0.22985 0 0.4597 8e-3 0.68955 0.0202 0.77423 0.0444 1.5202 0.16533 2.2461 0.34276l3.9962-13.315c-1.2138-0.55244-2.1049-1.6372-2.4235-2.9356m-156.9-14.827c-8.5609 5.8188-24.105 16.392-32.657 22.223 0.68431 1.1936 1.0476 2.5848 0.96658 4.0607-0.02823 0.4718-0.10242 0.92747-0.2117 1.367l15.615 5.2785c1.7864-4.5567 6.2221-7.7302 11.319-7.7302 0.23388 0 0.46373 4e-3 0.69762 0.0202 0.5968 0.0323 1.1775 0.12098 1.746 0.23792l5.8874-23.106c-1.3428-0.45567-2.5001-1.2783-3.3631-2.3509m47.398 29.647c0.14113 0 0.28227 4e-3 0.41938 0.0121 1.5041 0.0847 2.8792 0.621 4.0042 1.4638l11.541-13.013c-1.8469-1.8106-3.1211-4.1897-3.5284-6.8431l-25.223 2.6413c0 0.0403 8e-3 0.0726 8e-3 0.10887-0.0645 1.1372-0.57261 2.1412-1.3307 2.8832l10.246 13.856c1.1291-0.70165 2.4558-1.1089 3.8631-1.1089m-42.885-27.005-5.8874 23.106c2.488 0.76617 4.6293 2.2945 6.1495 4.3107l21.545-14.38c-0.31856-0.65326-0.49599-1.3791-0.45164-2.1533 0.0363-0.66939 0.23389-1.2864 0.53229-1.8348l-15.198-11.424c-1.3509 1.5243-3.3187 2.4759-5.4842 2.4759-0.14113 0-0.27824-4e-3 -0.41534-0.0121-0.27017-0.0121-0.53228-0.0444-0.79036-0.0887m-34.224-14.259-7.0802 30.502c1.3791 0.43954 2.5751 1.2743 3.4643 2.367 8.5549-5.839 24.077-16.396 32.658-22.231-0.67343-1.1855-1.0323-2.5687-0.95167-4.0325 0.0363-0.6089 0.15324-1.1976 0.32663-1.7541l-20.239-8.5932c-1.2347 2.355-3.7006 3.9397-6.4947 3.9397-0.14114 0-0.27864-4e-3 -0.41978-0.0121-0.43389-0.0202-0.85367-0.0928-1.263-0.18549m170.05 6.5729-19.88 18.957c0.7702 0.95166 1.3106 2.0969 1.5243 3.3469 8.8069-0.88311 23.816-2.4558 34.776-3.609 4e-3 -0.0403-4e-3 -0.0766-4e-3 -0.11291 0.0686-1.2299 0.64519-2.3106 1.5041-3.0566l-9.5247-14.557c-1.0484 0.57261-2.242 0.90327-3.5082 0.90327-0.13711 0-0.27421-4e-3 -0.41534-0.0121-1.7219-0.0968-3.2703-0.79036-4.472-1.859m-41.24 0.89118-16.17 8.452c0.81052 1.7541 1.2218 3.726 1.1049 5.7946-0.0242 0.42745-0.0726 0.85085-0.1371 1.2662l23.832 5.0688c0.54035-1.8106 1.742-3.3147 3.3268-4.2381l-7.0609-14.71c-0.42744 0.13711-0.88311 0.21775-1.3509 0.21775-0.0807 0-0.15726 0-0.23388-4e-3 -1.3872-0.0766-2.5646-0.80246-3.3106-1.8469m15.662 15.339c0.13307 0 0.27018 4e-3 0.40728 0.0121 1.7299 0.0928 3.2784 0.78633 4.472 1.8509l19.888-18.953c-0.77826-0.95972-1.3186-2.109-1.5323-3.3671l-30.969 2.7905 4e-3 0.0444c-0.0806 1.4356-0.85488 2.6614-1.9678 3.3994l7.0608 14.714c0.82262-0.31857 1.7098-0.49196 2.6372-0.49196m-73.814-22.267-8.5367 21.066c1.0323 0.59278 1.7783 1.5807 2.0646 2.7501l25.235-2.6493c-0.0242-0.4476-0.0282-0.90327-4e-3 -1.363 0.15726-2.8026 1.2622-5.3228 2.9679-7.2907l-14.65-14.025c-1.3025 1.1614-3.0163 1.859-4.8712 1.859-0.1371 0-0.27823-4e-3 -0.41534-0.0121-0.62503-0.0363-1.2178-0.15726-1.7904-0.33469m120.2 20.481c0.0766 0 0.15727 4e-3 0.22985 8e-3 1.2097 0.0686 2.2743 0.621 3.0244 1.4557l17.924-12.073c-0.7339-1.1936-1.1331-2.605-1.0767-4.101l-28.909-3.3913c-0.40728 1.613-1.3509 2.9961-2.613 3.976l9.5327 14.569c0.57664-0.27824 1.2138-0.44357 1.8872-0.44357m-124.67-24.417-23.642 8.6093c0.17339 0.70972 0.25404 1.4517 0.20968 2.2179-0.0726 1.2944-0.47986 2.488-1.1291 3.5123l15.19 11.412c0.80246-0.82666 1.9114-1.3468 3.1372-1.3468 0.0806 0 0.1613 4e-3 0.24195 8e-3 0.29034 0.0161 0.56858 0.0645 0.83875 0.13308l8.5287-21.049c-1.492-0.75004-2.6856-1.988-3.3752-3.4962m35.978 12.259c0.0323 0 0.0686 0 0.10081 4e-3 4.23 0.23791 7.827 2.605 9.8231 6.0003l16.158-8.4399c-0.19759-0.54035-0.29034-1.1251-0.25404-1.734 0.0484-0.80649 0.32259-1.5404 0.74197-2.1695l-22.731-20.066c-1.1654 1.125-2.6977 1.859-4.3833 2.0203l0.37098 24.384h0.0605 0.0564 0.0565m-7.2705-27.489-15.416 8.9924c0.52019 1.0807 0.78634 2.3066 0.70972 3.5889-0.0887 1.6049-0.69358 3.0566-1.6372 4.2139l14.658 14.025c2.0203-1.9114 4.6736-3.1332 7.5972-3.3147l-0.37098-24.38c-2.3146-0.1492-4.3026-1.3589-5.5406-3.1252m135.06 1.3468-7.8835 17.561c1.9961 1.2017 3.355 3.3187 3.5324 5.7382l21.783 0.12501c0.16533-1.8912 1.0323-3.5607 2.3348-4.7623l-16.19-19.166c-0.68149 0.43551-1.484 0.68955-2.3469 0.68955-0.0766 0-0.1613 0-0.24195-4e-3 -0.34276-0.0202-0.66939-0.0887-0.98795-0.18146m-35.32-4.3752-14.444 17.638c1.3831 1.4235 2.1977 3.3953 2.0808 5.5325-4e-3 0.0806-0.0242 0.15324-0.0242 0.23389l28.852 3.3832c0.38308-1.9275 1.5122-3.5647 3.0606-4.6212l-12.247-21.541c-0.9436 0.44357-1.992 0.68955-3.0929 0.68955-0.14114 0-0.28227-4e-3 -0.42341-0.0121-1.4033-0.0807-2.6856-0.55245-3.7623-1.3025m-144.82-9.0609-11.327 31.066c1.6412 0.7581 2.9437 2.0969 3.6655 3.7462l23.63-8.6093c-0.20566-0.746-0.30244-1.5404-0.25808-2.359 0.125-2.1735 1.1815-4.0607 2.7582-5.3188l-12.924-19.203c-1.0686 0.60084-2.2945 0.9436-3.5929 0.9436-0.1371 0-0.27824-4e-3 -0.41535-0.0121-0.52825-0.0282-1.0444-0.11694-1.5364-0.25405m104.7 15.569-18.606 17.549c0.3347 0.46374 0.57261 0.98796 0.70568 1.5565l30.985-2.7905c0-0.15726-4e-3 -0.31857 4e-3 -0.47986 0.11291-2.0162 1.0323-3.7986 2.4275-5.0527l-7.077-9.9562c-1.0767 0.61697-2.3187 0.97183-3.6373 0.97183-0.1371 0-0.2742-4e-3 -0.41131-0.0121-1.6896-0.0927-3.2098-0.7581-4.3914-1.7864m-135.96-12.303-12.145 14.714c1.6936 1.4356 2.7235 3.6171 2.5896 6.0084-0.03871 0.66132-0.16936 1.2944-0.37058 1.8993l20.216 8.577c0.73391-1.4759 1.9436-2.6614 3.4236-3.3631l-10.319-27.219c-0.3347 0.0766-0.67745 0.12903-1.0283 0.12903-0.0645 0-0.13307-4e-3 -0.19759-4e-3 -0.81052-0.0484-1.5444-0.32259-2.1695-0.74197m89.255 7.1334c-0.24598 0.68551-0.59277 1.3226-1.0242 1.8912l22.719 20.053c0.46776-0.40728 1.0202-0.69761 1.6291-0.87908l-1.7138-11.408c-0.0847 0-0.16936 0.0121-0.25404 0.0121h-0.0403c-2.4195-0.1371-4.2663-2.2058-4.1292-4.6212 4e-3 -0.10888 0.0363-0.20969 0.0524-0.31453l-17.239-4.7341m24.759 20.88h0.0363c0.95569 0.0564 1.8106 0.41534 2.5001 0.97182l18.578-17.529c-0.6331-0.75407-1.113-1.6372-1.3993-2.6009l-18.557 3.3873c8e-3 0.14517 0.0282 0.28631 0.0202 0.43148-0.10887 1.9033-1.4234 3.4397-3.1534 3.9438l1.7138 11.412c0.0887-4e-3 0.1734-0.0161 0.26212-0.0161m-87.827-36.232-19.42 4.1978c0.0161 0.20968 0.0363 0.41937 0.0242 0.63309-0.0847 1.5686-1 2.8872-2.2824 3.5889l10.319 27.223c0.64922-0.18953 1.3388-0.2984 2.0485-0.2984 0.13307 0 0.26211 4e-3 0.39921 0.0121 0.53228 0.0323 1.0484 0.11694 1.5404 0.25404l11.327-31.066c-1.9033-0.87505-3.351-2.5324-3.9558-4.5446m161.15 9.9239c-0.4718 1.7098-1.5364 3.1574-2.9558 4.1212l12.251 21.541c0.9436-0.44357 2.0001-0.68955 3.105-0.68955 0.13308 0 0.27018 4e-3 0.41132 0.0121 0.81456 0.0484 1.5848 0.22985 2.3025 0.51615l7.8714-17.533c-1.3065-0.81859-2.1493-2.2864-2.0606-3.9357l-20.924-4.0325m-30.961 19.505c0.1371 0 0.2742 4e-3 0.41534 0.0121 1.484 0.0806 2.8388 0.60487 3.9518 1.4275l14.42-17.602c-0.93956-0.91133-1.6372-2.0646-1.988-3.351l-25.098 4.5446c0.0242 0.30647 0.0282 0.61697 0.0121 0.9315-0.12098 2.1493-1.1614 4.0284-2.7138 5.2866l7.0488 9.9158c1.1452-0.73794 2.5042-1.1654 3.9518-1.1654m-102.08-7.5649c0.13711 0 0.27421 4e-3 0.41535 0.0121 2.3388 0.13307 4.3591 1.3509 5.6051 3.1372l15.42-8.9924c-0.52422-1.0807-0.78633-2.3066-0.71375-3.5889 0.0202-0.39518 0.0847-0.77826 0.16533-1.1492l-35.159-10.71c-0.47583 1.2057-1.2622 2.2461-2.2501 3.0364l12.928 19.203c1.0646-0.60084 2.2904-0.94763 3.5889-0.94763" style="fill:#d4d4d4"/>
 </g>
 <g transform="translate(35.635 27.144)">
  <path d="m238.48 104.28c-0.21778-0.0182-0.43159-0.0325-0.64937-0.0325-0.9503 0-1.861 0.18293-2.6965 0.50366l-15.898-33.246c2.3045-1.2948 3.8646-3.7577 3.8646-6.5848 0-0.14651-0.0119-0.29301-0.0238-0.43952l16.223-2.8747c0.69292 2.6529 2.7915 4.7357 5.4564 5.4088zm-18.824 49.748c-0.73253-0.23718-1.5126-0.36785-2.3243-0.36785-1.172 0-2.2807 0.27599-3.2746 0.7547l-9.9624-17.016c3.4211-2.2384 5.682-6.0974 5.682-10.489 0-1.1586-0.17026-2.2748-0.46327-3.3403l21.73-8.4696c0.71271 1.4706 1.8887 2.6719 3.338 3.4175zm-6.9887 105.75c-0.38805-0.0602-0.78797-0.10216-1.1958-0.10216-1.667 0-3.1994 0.54684-4.4466 1.4568l-11.586-11.211c1.073-1.3051 1.7185-2.9737 1.7185-4.7978 0-1.9474-0.7444-3.7217-1.9521-5.0588l20.4-21.703c0.86319 0.69492 1.8848 1.1958 3.0014 1.4536zm-11.629 37.32c-0.87903-0.35597-1.8373-0.55714-2.839-0.55714-2.3362 0-4.4189 1.0584-5.8048 2.7199l-9.4041-6.6252c0.32073-0.62087 0.52267-1.3158 0.52267-2.0602 0-0.7444-0.19798-1.4322-0.51079-2.0495l23.021-16.069c0.81172 0.84339 1.8175 1.4959 2.942 1.8946zm-15.058 22.871c-0.67709-0.6173-1.5442-1.0196-2.5025-1.1324l-3.2667-23.939c0.81964-0.22572 1.5403-0.67395 2.1026-1.2806l9.3882 6.6355c-0.66918 1.1293-1.0572 2.4379-1.0572 3.8456 0 2.5013 1.2235 4.7167 3.1004 6.0887zm-15.85 4.7519c-0.18214-1.4639-1.0532-2.6989-2.2926-3.3795l10.133-26.391c0.33657 0.0776 0.67709 0.13028 1.0335 0.13028l3.2469 23.774c-2.1501 0.34211-3.8012 2.1909-3.8012 4.4379 0 0.20077 0.0356 0.39518 0.0634 0.5892zm-8.8656-13.381c1.6908-0.65294 2.8866-2.2792 2.8866-4.1984 0-0.86757-0.25738-1.6682-0.68105-2.36l12.568-10.841c0.24549 0.215 0.51475 0.4019 0.8038 0.56425l-10.133 26.388c-0.33261-0.0776-0.67709-0.1267-1.0335-0.1267-0.48703 0-0.95427 0.0986-1.3938 0.24312zm2.8866-33.419c1.4571 0 2.8153-0.41971 3.9675-1.1324l7.7569 10.552c-0.84735 0.81844-1.374 1.9651-1.374 3.235 0 0.90321 0.26925 1.7426 0.72857 2.4482l-12.536 10.82c-0.5979-0.55751-1.3463-0.95584-2.1817-1.1218l3.2667-24.821c0.12275 7e-3 0.24549 0.0209 0.3722 0.0209zm-6.0661-43.152c1.0057-0.33498 1.8531-1.0053 2.4035-1.8943l21.996 9.7541c-0.27717 0.78322-0.4316 1.6195-0.4316 2.4942 0 1.8559 0.66918 3.5526 1.7818 4.8683l-14.765 14.647c-1.3225-1.1392-3.037-1.8274-4.9178-1.8274-0.2653 0-0.52663 0.0143-0.78796 0.0388zm-12.314-26.529c2.0748-1.3055 3.4686-3.5807 3.5399-6.1948l25.227-1.3474c0.1861 1.8095 1.0058 3.429 2.2372 4.6316l-17.735 21.368c-0.68897-0.43041-1.5007-0.69135-2.3758-0.69135-0.53851 0-1.0533 0.11285-1.5324 0.28549zm-87.705 30.759c-0.19402-0.0246-0.38804-0.0566-0.58998-0.0566-0.8038 0-1.5442 0.22569-2.2015 0.59275l-21.513-28.409c1.1958-1.0691 2.0511-2.5013 2.3797-4.1311l22.926 2.7408c-4e-3 0.099-0.01188 0.19046-0.01188 0.28945 0 3.2667 2.0788 6.0432 4.9852 7.098zm-3.6349 30.148c-2.1026 0-3.9992 0.85727-5.3692 2.2404l-16.971-15.011c0.95031-1.2592 1.5165-2.8256 1.5165-4.5258 0-0.4621-0.04751-0.91387-0.12671-1.355l19.838-5.3055c0.55435 1.3193 1.7224 2.3104 3.1439 2.6422l-1.9521 21.315zm2.6807 34.869c-0.89487 0.2364-1.671 0.73371-2.2609 1.4112l-10.738-6.9709c0.27718-0.58206 0.44348-1.2279 0.44348-1.9157 0-1.2805-0.53851-2.4308-1.3977-3.2492l7.349-10.142c1.1443 0.69493 2.4827 1.1044 3.924 1.1044 0.09899 0 0.19402-0.0106 0.29301-0.0143zm-4.1972 18.051c-0.54642-0.23283-1.1443-0.36348-1.7739-0.36348-0.34053 0-0.66918 0.0459-0.9899 0.11679l-7.9747-21.329c0.48307-0.26096 0.91071-0.60306 1.2671-1.0157l10.738 6.9705c-0.26925 0.58206-0.43952 1.2279-0.43952 1.9157 0 1.7605 1.0176 3.2667 2.4906 4.0111zm-20.214-4.3072 6.3473-16.831c0.32073 0.0741 0.6573 0.11999 1.0018 0.11999 0.34053 0 0.66918-0.0459 0.9899-0.11641l7.9747 21.329c-1.1404 0.61373-1.9917 1.6935-2.2768 2.9951l-11.748-2.7797c0.04356-0.25064 0.07919-0.50803 0.07919-0.7729 0-1.711-0.96219-3.182-2.3678-3.9438zm-11.261-21.654 14.136 0.78322c0.12275 1.5593 1.0295 2.8858 2.3322 3.5985l-6.3433 16.831c-0.32469-0.074-0.6573-0.12353-1.0057-0.12353-0.81568 0-1.5759 0.23638-2.2332 0.6173l-9.9663-16.598c1.6472-1.1819 2.7915-3.0057 3.0806-5.1083zm-16.155-31.531c2.7955-1.1043 4.7793-3.8278 4.7793-7.0204 0-0.4023-0.04355-0.79348-0.10295-1.1784l8.921-2.1588c0.72065 2.1837 2.4074 3.9192 4.5615 4.7167l-8.042 28.734c-0.46328-0.0883-0.94635-0.14136-1.4373-0.14136-0.5583 0-1.0968 0.0638-1.6155 0.17661zm-9.5288-49.678c0.55751-0.14452 1.0901-0.34567 1.591-0.60701l23.729 31.891c-1.5759 1.3867-2.5777 3.4116-2.5777 5.6694 0 0.40544 0.04356 0.79705 0.10295 1.1816l-8.921 2.1592c-0.9899-3.0129-3.825-5.1895-7.172-5.1895-0.22926 0-0.45496 0.0143-0.68066 0.0352zm4.7167-47.234c0.1762 0.0119 0.3528 0.0269 0.53257 0.0269 2.4799 0 4.6795-1.2037 6.0535-3.0525l10.402 6.4965c-0.25737 0.56504-0.40388 1.1867-0.40388 1.8444 0 1.1847 0.46724 2.2562 1.2116 3.0604l-20.523 25.072c-0.65967-0.39517-1.3831-0.69491-2.1556-0.87507zm-14.651-46.444c1.7391-0.87864 3.0869-2.4066 3.7323-4.2681l15.747 4.0669c-0.06336 0.39398-0.10295 0.79509-0.10295 1.2065 0 3.1823 1.9679 5.8994 4.7555 7.0117l-7.3003 23.53c-0.53296-0.11761-1.083-0.18413-1.6476-0.18413-0.77965 0-1.5312 0.11721-2.2368 0.33697zm-11.843-52.692c2.3354-0.6573 4.2051-2.4114 5.0307-4.6724l16.351 4.5179c-0.20115 0.883-0.314 1.8016-0.314 2.744 0 4.3991 2.272 8.2598 5.6975 10.497l-15.081 26.051c-0.98436-0.46803-2.0812-0.73847-3.2421-0.73847-0.28905 0-0.57494 0.0206-0.85726 0.0531zm5.3447-46.308c0.42328 0.0713 0.85726 0.11879 1.3051 0.11879 3.0588 0 5.6868-1.8214 6.8723-4.4348l21.288 7.6539c-0.1465 0.58602-0.22966 1.1918-0.22966 1.8214 0 1.5086 0.44744 2.9103 1.2077 4.0903-8.4795 6.4898-23.812 18.226-32.261 24.716-0.97684-1.0691-2.2506-1.8571-3.6971-2.2293zm17.473-29.273c0.67036 0.39596 1.4429 0.6375 2.2756 0.6375 0.43714 0 0.85013-0.08315 1.2489-0.19798l12.174 27.361c-1.4769 0.80776-2.6529 2.0946-3.3221 3.6547l-21.26-7.646c0.16947-0.62958 0.26807-1.2869 0.26807-1.9719 0-2.4589-1.1815-4.6407-3.0053-6.0186zm26.421-9.9505c0.74441 2.0273 2.3243 3.6468 4.3318 4.4348l-9.8436 32.568c-0.51079-0.11087-1.0453-0.17422-1.5957-0.17422-0.87508 0-1.7185 0.15838-2.4985 0.43555l-12.173-27.365c1.2805-0.79192 2.1378-2.2015 2.1378-3.8171 0-0.22174-0.03168-0.43556-0.06335-0.64542zm50.988 8.7547c-0.0633 0.38804-0.10295 0.784-0.10295 1.1879 0 1.3225 0.34053 2.5658 0.93843 3.6468l-15.316 10.129c-1.3819-1.762-3.528-2.8984-5.9394-2.8984-1.4967 0-2.8866 0.44348-4.0626 1.1918l-14.385-18.974c0.97011-0.87112 1.7185-1.9838 2.1382-3.2508zm32.663 7.2303c-0.0119 0.11087-0.0356 0.21778-0.0356 0.32865 0 2.4906 2.0154 4.506 4.506 4.506 0.10691 0 0.20194-0.02376 0.30489-0.03168l2.4193 11.625c-0.61374 0.21382-1.1681 0.55039-1.6234 0.99386l-24.494-19.283c0.40784-0.61374 0.72857-1.2829 0.94239-2.0036zm27.8-4.6684c0.35241 0.97406 0.89092 1.8531 1.5838 2.5935l-18.064 19.077c-0.7444-0.53059-1.6432-0.85132-2.6213-0.85132-0.10691 0-0.2059 0.02376-0.31281 0.03168l-2.4154-11.621c1.7462-0.62166 3.0093-2.2728 3.0093-4.2328 0-0.15046-0.0317-0.29301-0.0475-0.44348zm40.099-9.6298c0.43952 1.3027 1.2196 2.447 2.2372 3.3261l-13.791 18.911c-1.1918-0.78004-2.6133-1.2354-4.1418-1.2354-1.6512 0-3.1756 0.53455-4.4229 1.4373l-7.8084-9.7802c1.5205-1.3819 2.4787-3.3696 2.4787-5.587 0-0.32469-0.0238-0.6375-0.0633-0.95427zm36.274 2.1184c4e-3 1.6987 0.95426 3.1598 2.3441 3.9279l-7.0719 18.46c-0.75629-0.24945-1.5561-0.392-2.3956-0.392-1.2908 0-2.5064 0.32469-3.5716 0.89487l-13.827-21.414c1.4017-1.0731 2.4114-2.6213 2.7955-4.407zm20.218 121.29-21.216-9.8068c0.12671-0.41813 0.21778-0.85249 0.21778-1.3126 0-1.7996-1.0651-3.3411-2.5936-4.0645l6.4858-20.567c0.4514 0.0831 0.91467 0.13463 1.3938 0.13463 0.91071 0 1.7779-0.17026 2.5817-0.46327l15.906 33.266c-1.1562 0.67432-2.1184 1.6456-2.7757 2.8133zm-29.903 6.9895 3.7933-13.662c0.19798 0.0265 0.39596 0.0598 0.60186 0.0598 1.5957 0 2.9895-0.8335 3.7894-2.0832l21.212 9.8032c-0.30093 0.81251-0.47514 1.6864-0.47514 2.6023 0 0.7543 0.11878 1.4797 0.32073 2.1659l-21.667 8.4443c-1.3186-3.427-4.0942-6.1216-7.5747-7.3304zm8.4221 46.133c0 0.97129 0.19006 1.8974 0.52663 2.7515l-10.861 5.292c-0.66918-1.0049-1.7383-1.7117-2.9776-1.9252l0.97803-27.899c2.0194-0.0313 3.92-0.5393 5.5989-1.4183l9.9624 17.014c-1.9521 1.3657-3.2271 3.6254-3.2271 6.1849zm7.1669 44.495-18.42-30.459c1.0176-0.82558 1.6828-2.0725 1.6828-3.4864 0-0.49297-0.099-0.95783-0.24549-1.4013l10.877-5.3035c1.2869 2.173 3.631 3.6416 6.3275 3.7014l2.1065 36.229c-0.82756 0.11641-1.6116 0.36349-2.3282 0.71985zm-22.625 33.517c-1.2948-1.0338-2.9301-1.6543-4.7119-1.6543-0.2059 0-0.40784 0.0138-0.61374 0.0281l-4.9693-30.385c2.2609-0.61018 4.1022-2.2368 4.997-4.3639l23.96 7.8495c-0.13859 0.56781-0.21778 1.157-0.21778 1.7636 0 1.9509 0.74836 3.722 1.956 5.0624zm-68.315-60.695 18.004-11.249c1.4848 2.1338 3.6151 3.7743 6.1057 4.6573l-6.763 22.516c-0.51475-0.10929-1.0414-0.16591-1.5838-0.16591-1.7502 0-3.3617 0.59988-4.6407 1.5981l-11.665-12.778c0.58602-0.75827 0.94239-1.7003 0.94239-2.7337 0-0.6565-0.14651-1.2809-0.39992-1.8452zm-30.295-1.8697-2.0432-24.19c1.1483-0.18888 2.2015-0.63116 3.1123-1.275l21.802 26.153c-0.58206 0.63512-0.97406 1.4393-1.1166 2.3282l-17.557 0.68462c-0.36033-2.0392-2.0828-3.5914-4.1972-3.7006zm-27.175 26.07 3.0766-17.117c0.24153 0.0245 0.48307 0.0352 0.73253 0.0352 3.627 0 6.6522-2.5575 7.3847-5.9656l11.245 1.4817c4e-3 1.016 0.35637 1.9438 0.92655 2.6953l-20.404 20.412c-0.84736-0.71986-1.8531-1.2524-2.9618-1.5419zm-33.102-0.72302 30.865-19.392c1.0057 1.3407 2.447 2.3354 4.114 2.78l-3.0726 17.113c-0.23758-0.0246-0.48704-0.0352-0.73253-0.0352-3.6587 0-6.7076 2.5999-7.4005 6.0535l-22.926-2.7444c0-0.0954 0.0079-0.18689 0.0079-0.28589 0-1.2592-0.30885-2.4447-0.85528-3.4888zm-34.012 5.7078 19.844-1.1712c0.46328 3.3304 3.0925 5.9656 6.4304 6.4276l-1.8175 31.337c-1.4017 0.0321-2.7084 0.44823-3.825 1.1467l-23.673-31.817c1.8131-1.3546 2.9986-3.496 3.0406-5.9232zm17.789-30.903c0.68897 0.41972 1.4849 0.67749 2.352 0.67749 0.12275 0 0.23362-0.0285 0.35637-0.0356l4.5496 20.835c-3.0093 0.94555-5.2029 3.7327-5.2782 7.0414l-19.85 1.1681c-0.27163-1.8697-1.2204-3.5173-2.5999-4.6814zm62.376-176.32 1.7898 25.017c-2.9895 0.36033-5.6504 1.766-7.6104 3.8488l-15.866-13.562c0.90279-1.2433 1.4413-2.7678 1.4413-4.4229 0-1.3225-0.34053-2.5619-0.93843-3.6428l15.316-10.129c1.3661 1.7422 3.4844 2.8707 5.8681 2.8905zm29.836 20.911-16.108 9.61c-2.2491-3.3736-6.078-5.5989-10.438-5.5989-0.099 0-0.19006 0.0119-0.28509 0.0119l-1.7898-25.025c1.7224-0.26133 3.2548-1.1047 4.3872-2.3283l24.506 19.295c-0.39596 0.66917-0.6375 1.4413-0.6375 2.2728 0 0.62562 0.13067 1.2235 0.36429 1.762zm104.13 35.965c-0.34845 0-0.68502 0.0317-1.0176 0.0752l-8.24-33.922c2.938-0.9701 5.0723-3.6983 5.1712-6.9412l22.38-1.1324c0.30094 2.2966 1.6314 4.2645 3.5161 5.4326l-18.828 37.102c-0.91467-0.39595-1.9244-0.61373-2.9816-0.61373zm-9.7961 35.1c-1.2037 0-2.2966 0.4803-3.1043 1.2524l-23.148-18.466c1.564-2.063 2.5104-4.6169 2.5421-7.3966l26.078-1.5918c0.47912 2.6688 2.3599 4.8466 4.8584 5.7533l-6.47 20.525c-0.2455-0.0416-0.49891-0.0756-0.75629-0.0756zm-8.5052 21.911c-4.8584 0-9.0675 2.7733-11.146 6.8177l-17.961-9.2477c0.38012-0.89686 0.58602-1.88 0.58602-2.9131 0-0.47238-0.0475-0.93289-0.13067-1.3803l33.007-8.9269c0.45139 1.0695 1.3027 1.9252 2.3678 2.3849l-3.7814 13.627c-0.94239-0.22728-1.9283-0.36112-2.942-0.36112zm-1.9956 52.923c-1.6551 0.16709-3.0449 1.2073-3.6785 2.6692l-25.06-7.037c0.20194-0.89923 0.32469-1.8321 0.32469-2.7951 0-2.6712-0.8434-5.142-2.2649-7.1748l23.152-17.914c2.0946 2.4466 5.1119 4.0732 8.5171 4.3449zm-29.068-3.1938 25.072 7.0414c-0.0277 0.20194-0.0594 0.40468-0.0594 0.61612 0 1.5732 0.80777 2.9539 2.0313 3.7581l-8.335 17.41c-0.87903-0.35636-1.8333-0.55395-2.839-0.55395-1.2869 0-2.4985 0.32113-3.5597 0.88894l-16.472-23.272c1.9125-1.4975 3.3736-3.5348 4.1616-5.888zm-43.671 11.825v-21.481c1.5324-0.20986 2.8192-1.1823 3.4567-2.5357l16.219 5.0679c-0.2653 1.0097-0.41972 2.0626-0.41972 3.1546 0 2.2206 0.58206 4.3037 1.5957 6.1128l-18.016 11.254c-0.70085-0.84299-1.6947-1.4179-2.8351-1.5732zm-90.675 22.683 12.132-34.001c1.1522 0.34646 2.3718 0.5393 3.6349 0.5393 3.2033 0 6.1176-1.2128 8.331-3.1914l10.75 11.145c-1.18 1.332-1.9006 3.0746-1.9006 4.9903 0 1.2596 0.31677 2.4447 0.85924 3.4892l-30.865 19.395c-0.76025-1.0196-1.766-1.838-2.942-2.367zm-5.7692-25.635c0-0.8331-0.24154-1.6048-0.6375-2.274l12.635-9.9664c1.2829 1.5019 2.9064 2.6989 4.7555 3.4643l-12.132 34.005c-0.62166-0.16591-1.275-0.2649-1.9521-0.2649-0.36824 0-0.72461 0.0317-1.081 0.0847l-4.5496-20.828c1.7264-0.63512 2.9618-2.2752 2.9618-4.221zm-8.0736-45.324 19.826 17.136c-1.7185 2.1461-2.7519 4.8636-2.7519 7.8266 0 2.6616 0.83548 5.1265 2.253 7.1566l-12.635 9.966c-0.81172-0.78243-1.9085-1.2679-3.1241-1.2679-0.05939 0-0.10691 0.0139-0.16234 0.017l-6.7868-38.952c1.2948-0.32826 2.451-0.98436 3.3815-1.8824zm-1.5047-47.724 20.079 18.026c-0.49099 0.72104-0.77608 1.5914-0.77608 2.5298 0 0.83706 0.24154 1.612 0.6375 2.2835l-18.123 14.351c-1.3819-1.5027-3.3578-2.4498-5.5593-2.4498-0.0594 0-0.11483 7e-3 -0.17422 8e-3l-3.1043-31.185c2.7242-0.4118 5.1673-1.6908 7.0204-3.5636zm-0.38012-44.997c2.4035 0 4.5417-1.1245 5.9236-2.8747l16.27 10.857c-0.27321 0.58206-0.44348 1.2275-0.44348 1.9125 0 0.79985 0.2257 1.5363 0.58998 2.1857l-21.299 16.017c-1.6789-1.9838-3.9636-3.429-6.569-4.0705l4.7119-24.074c0.26925 0.0317 0.54247 0.0475 0.81568 0.0475zm34.666-16.634-7.5431 22.11c-0.28113-0.0515-0.57018-0.0871-0.86716-0.0871-1.3581 0-2.5698 0.61769-3.3973 1.572l-16.258-10.845c0.60582-1.0849 0.95823-2.3362 0.95823-3.6706 0-0.78796-0.12671-1.5482-0.3524-2.2649l23.793-10.216c0.79588 1.5126 2.0907 2.7163 3.6666 3.4013zm64.791 5.8444c0.57018 0 1.1087-0.11483 1.6155-0.30885l8.1053 14.698c-1.572 1.0414-2.7282 2.6569-3.1756 4.5456l-24.771-3.825c0.0475-0.4316 0.0673-0.86716 0.0673-1.3106 0-2.1303-0.53455-4.1299-1.473-5.888l16.124-9.6179c0.8236 1.0335 2.0828 1.7066 3.5082 1.7066zm37.917-5.8365-19.327 20.618c-1.2908-1.0295-2.9262-1.6472-4.704-1.6472-1.1047 0-2.154 0.24154-3.1004 0.66918l-8.1053-14.706c1.1008-0.81964 1.8254-2.1224 1.8254-3.6032l-4e-3 -0.04752 31.649-4.6565c0.29301 1.279 0.91467 2.4312 1.766 3.3736zm5.587 2.4827c1.4611 0 2.8192-0.41971 3.9754-1.1404l10.624 14.401c-0.83944 0.81568-1.3661 1.96-1.3661 3.2271 0 0.0396 8e-3 0.0752 8e-3 0.11483-11.194 1.8214-26.514 4.3001-35.506 5.7177-0.29697-1.271-0.91863-2.4154-1.766-3.3498l19.331-20.618c1.2908 1.0295 2.9222 1.6472 4.7001 1.6472zm50.584 39.41-28.881-20.82c0.3326-0.62958 0.54642-1.3384 0.54642-2.1026 0-0.8038-0.22966-1.5482-0.60186-2.2015l17.771-13.482c1.374 1.4215 3.2944 2.3084 5.4286 2.3084 0.40388 0 0.79588-0.0396 1.1839-0.099l8.236 33.89c-1.473 0.4514-2.744 1.3344-3.6824 2.5064zm-82.708 61.996c1.5363-1.3823 2.5064-3.3807 2.5064-5.6092 0-0.27994-0.0159-0.55553-0.0436-0.82835l24.459-4.8086c0.71669 2.7278 2.9103 4.8529 5.682 5.4591l-4.1853 31.246c-0.35241-0.0297-0.70481-0.0538-1.0651-0.0538-2.5737 0-4.9654 0.77964-6.961 2.112zm-4.4189 23.363 0.0871-21.454c1.2314-0.11562 2.3758-0.53019 3.3657-1.1665l20.38 27.502c-1.7145 1.4041-3.037 3.2607-3.8131 5.3787l-16.215-5.0695c0.0356-0.24352 0.0713-0.4906 0.0713-0.746 0-2.274-1.6868-4.1366-3.8765-4.4447zm-24.249-5.3086 18.685-17.952c1.2037 1.0406 2.74 1.7038 4.4268 1.8171l-0.0831 21.441c-1.7541 0.23283-3.1716 1.4611-3.6904 3.1059l-17.668-2.984c0.0198-0.21501 0.0317-0.43121 0.0317-0.65176 0-1.8115-0.6375-3.4738-1.7026-4.7757zm-40.57-25.589c0.77213 3.2968 2.839 6.0859 5.6464 7.8092l-10.346 18.851c-1.6393-0.78559-3.4647-1.239-5.4049-1.239-3.5241 0-6.6997 1.4571-8.9764 3.7961l-19.834-17.14c0.94239-1.2607 1.5126-2.82 1.5126-4.5148 0-0.23005-0.01585-0.45614-0.03564-0.68105zm-20.527-10.931c0.80776 0.77806 1.9046 1.2627 3.1123 1.2627 1.7502 0 3.2469-1.0046 3.9953-2.4566l13.728 5.3146c-0.41576 1.2425-0.64542 2.5674-0.64542 3.9489 0 0.56504 0.04751 1.117 0.12275 1.6618l-37.438 6.8814c-0.2059-0.81568-0.54643-1.5803-0.99782-2.2649zm-17.078-32.8 33.768-2.154c0.28905 1.9956 1.3502 3.7339 2.8786 4.906l-14.623 22.691c-0.56226-0.24906-1.18-0.39437-1.8333-0.39437-1.1087 0-2.1105 0.41734-2.8984 1.0841l-20.095-18.039c1.7581-2.158 2.8113-4.906 2.8113-7.9074 0-0.0634-4e-3 -0.12274-0.0079-0.1861zm22.261-21.592c0.8632 0 1.6591-0.25341 2.348-0.67709l11.34 13.633c-1.37 1.3423-2.2293 3.2033-2.2649 5.2663l-33.76 2.154c-0.23362-2.1105-0.9899-4.0546-2.1382-5.7137l21.275-16.001c0.81568 0.8236 1.9481 1.3384 3.1994 1.3384zm34.27-1.9679-11.107 14.037c-1.1998-0.8038-2.6371-1.271-4.1893-1.271-1.6155 0-3.1123 0.51079-4.3397 1.374l-11.321-13.645c0.73253-0.79985 1.1958-1.861 1.1958-3.037 0-0.0356-0.01188-0.0713-0.01188-0.10691l25.753-4.1734c0.57018 2.7005 2.0154 5.0723 4.019 6.8224zm8.24 3.1083c1.1958 0 2.352-0.18214 3.4449-0.49495l8.6636 25.516c-1.7224 0.74441-3.1043 2.1144-3.8765 3.821l-24.53-9.4833c0.20194-0.68106 0.31281-1.4017 0.31281-2.1461 0-2.1818-0.93051-4.1418-2.4074-5.5237l11.107-14.037c2.055 1.469 4.5654 2.348 7.2857 2.348zm39.458-0.10295-20.186 25.757c-1.1958-0.79192-2.6213-1.2552-4.1655-1.2552-0.63355 0-1.2473 0.0871-1.8412 0.23362l-8.6636-25.52c3.8883-1.5363 6.8303-4.9495 7.6816-9.1348l24.771 3.829c-0.0159 0.17818-0.0277 0.36032-0.0277 0.54246 0 2.1936 0.94239 4.1655 2.4312 5.5474zm36.836 51.102c-1.9679 0-3.7498 0.75866-5.096 1.9897l-15.344-13.868c0.49099-0.72461 0.784-1.5997 0.784-2.5421 0-0.62563-0.13066-1.2196-0.36032-1.762l17.921-10.675c1.7026 2.55 4.312 4.4308 7.3649 5.2029l-4.3991 21.709c-0.2851-0.0325-0.57415-0.0542-0.87112-0.0542zm-35.221 8.7373 9.5902-18.917c0.46327 0.16234 0.95426 0.26529 1.469 0.26529 1.1047 0 2.1065-0.4118 2.8866-1.073l15.347 13.868c-1.0176 1.2877-1.6274 2.9076-1.6274 4.6739 0 0.24193 0.0159 0.48069 0.0356 0.71827l-24.478 4.8113c-0.50287-1.8183-1.671-3.3566-3.2231-4.3469zm-31.962-23.205-15.64 15.544c-2.2293-2.0344-5.1871-3.2865-8.4419-3.2865-0.60582 0-1.2037 0.0578-1.7858 0.14056l-4.7476-24.451c2.0986-0.58603 3.8289-2.055 4.7634-3.9873l24.561 9.4991c-0.16631 0.62562-0.2653 1.2829-0.2653 1.964 0 1.7224 0.58602 3.3063 1.5561 4.5773zm35.466-34.627c0.20986 0 0.41576-0.0119 0.62166-0.0317 1.5244 8.6914 4.0982 22.712 5.5237 30.445-1.4334 0.47515-2.5381 1.6353-2.9301 3.1043l-25.148-3.14c4e-3 -0.11088 0.0198-0.21779 0.0198-0.32865 0-2.1936-0.94239-4.1655-2.4391-5.5435l20.19-25.757c1.1918 0.78797 2.6252 1.2512 4.1616 1.2512zm-7.551 56.649c-1.2552 0-2.4312 0.30964-3.4726 0.84894l-13.855-21.461c1.4136-1.081 2.4312-2.645 2.8074-4.4506l25.124 3.14c0.0159 1.5165 0.78005 2.847 1.9402 3.6508l-9.5743 18.88c-0.91467-0.38962-1.9164-0.6074-2.9697-0.6074zm-42.697-5.6132 15.593-15.502c1.3582 1.279 3.1756 2.0669 5.1831 2.0669 1.2988 0 2.5183-0.32469 3.5835-0.90279l13.835 21.448c-1.5165 1.1293-2.5936 2.8101-2.9341 4.7504l-32.057-2.9428c8e-3 -0.17857 0.0317-0.35517 0.0317-0.53652 0-3.2263-1.2314-6.1604-3.235-8.3809zm79.248-29.848-17.941 10.687c-0.8236-1.0335-2.0788-1.7066-3.5043-1.7066-0.0713 0-0.13858 0.0158-0.20986 0.0198-1.9164-10.386-4.1695-22.744-5.5236-30.418 1.8254-0.45139 3.3855-1.5561 4.415-3.0647l22.661 12.928c-0.8632 1.7066-1.3661 3.627-1.3661 5.6741 0 2.1263 0.53455 4.1259 1.469 5.88zm-115.3 23.456 14.615-22.679c1.0612 0.57018 2.2768 0.89487 3.5676 0.89487 0.28113 0 0.56226-0.0159 0.83548-0.0475l4.7476 24.444c-3.7933 0.92774-6.9095 3.5739-8.4696 7.0754l-13.74-5.3213c0.0594-0.29222 0.09107-0.59671 0.09107-0.90675 0-1.3985-0.64938-2.6316-1.6472-3.4591zm10.925 44.875 10.343-18.843c1.6551 0.80935 3.5122 1.275 5.4801 1.275 2.3876 0 4.613-0.67947 6.5136-1.8388l11.285 16.643c-1.7224 1.3847-2.8272 3.5054-2.8272 5.8872 0 0.21105 0.0159 0.41972 0.0277 0.62562l-25.096 4.1524c-0.76816-3.3463-2.8747-6.1734-5.7256-7.9022zm43.35-2.5262c-1.3344-1.18-3.0806-1.9034-5.001-1.9034-1.3542 0-2.6213 0.35953-3.7181 0.98278l-11.285-16.645c2.5975-1.958 4.407-4.8992 4.8782-8.276l32.045 2.9558c0 0.0333-8e-3 0.0645-8e-3 0.097 0 1.8448 0.66521 3.5348 1.766 4.8462zm77.751-97.909-3.338 13.914c-0.75233-0.14254-1.5284-0.2257-2.3243-0.2257-4.4427 0-8.3389 2.3203-10.564 5.8048l-22.665-12.932c0.45536-0.9701 0.72065-2.0511 0.72065-3.1994 0-0.17422-0.0198-0.34448-0.0317-0.51475 10.026-1.5759 27.401-4.3991 35.541-5.7216 0.40388 1.3186 1.3819 2.3797 2.6609 2.8747zm-102.84 129.08c-1.8175 0-3.4845 0.64225-4.7872 1.7113l-10.754-11.147c2.063-2.234 3.334-5.2116 3.334-8.4894 0-0.5492-0.04356-1.0849-0.11483-1.6135l25.084-4.1493c0.43952 1.7502 1.4809 3.2556 2.8984 4.2835l-12.279 20.211c-1.0176-0.51238-2.1659-0.80697-3.3815-0.80697zm114.63-36.459-23.156 17.914c-1.8333-2.141-4.3674-3.6535-7.258-4.1806l4.1893-31.251c0.13859 8e-3 0.27322 0.0206 0.41576 0.0206 2.7044 0 5.0723-1.4263 6.4067-3.5613l18.02 9.2798c-0.56622 1.427-0.88299 2.9776-0.88299 4.6046 0 2.67 0.83944 5.1408 2.2649 7.174zm14.322-36.542-33.027 8.9337c-0.8236-2.2732-2.6965-4.0392-5.0366-4.7036l4.3991-21.707c0.61374 0.095 1.2394 0.15838 1.8848 0.15838 3.6389 0 6.9056-1.5601 9.1942-4.0388l23.18 18.489c-0.40388 0.67551-0.64938 1.4548-0.64938 2.2978 0 0.196 0.0356 0.38171 0.0554 0.57058zm-19.299-30.904c-0.43951-5.2346-4.0863-9.5506-8.9725-10.976l3.338-13.922c0.14651 0.0119 0.29302 0.0436 0.44348 0.0436 1.2829 0 2.4391-0.54643 3.2588-1.4057l28.905 20.832c-0.62166 1.0968-0.98199 2.3599-0.98199 3.7102 0 0.0436 8e-3 0.0831 8e-3 0.1267zm14.369-50.137c0.0317 1.5403 0.51871 2.9697 1.3423 4.1497l-17.711 13.439c-0.81568-0.81568-1.9442-1.3225-3.1914-1.3225-0.784 0-1.5046 0.21778-2.1461 0.57019l-10.636-14.409c1.2394-1.0849 2.1263-2.5579 2.451-4.2407zm-121.4 13.779c-1.6432 2.1184-2.6292 4.7713-2.6292 7.6618 0 0.47515 0.0317 0.94239 0.0792 1.4017l-25.765 4.1734c-0.36032-1.1839-1.1879-2.154-2.2807-2.7005l7.5549-22.13c0.59394 0.14651 1.2116 0.23758 1.8531 0.23758 2.0788 0 3.9596-0.8434 5.3257-2.2015zm16.171 149.68-11.265-1.4848c4e-3 -0.12354 0.0159-0.25065 0.0159-0.37775 0-2.5152-1.2354-4.7397-3.1281-6.1121l12.275-20.212c1.0216 0.51396 2.1699 0.80816 3.3894 0.80816l0.0238-1e-3 2.0392 24.17c-1.6274 0.3631-2.9064 1.612-3.3498 3.2101zm6.5729-29.543c0.97407-0.95427 1.6828-2.1726 2.0313-3.5359l17.66 2.9824c0 0.0483-0.0159 0.0919-0.0159 0.14135 0 2.2803 1.6987 4.1457 3.9002 4.4455v21.481c-0.64938 0.0879-1.2473 0.30331-1.7779 0.63473zm115.64 59.123-23.964-7.8456c0.13859-0.5682 0.21778-1.157 0.21778-1.764 0-2.7305-1.4532-5.1186-3.627-6.4451l8.3508-17.452c0.4316 0.14096 0.88695 0.23639 1.37 0.23639 0.6375 0 1.2394-0.13384 1.7898-0.37062l18.412 30.445c-1.1206 0.80776-2.0115 1.9081-2.55 3.1958zm2.1936-218.24c0.97802 0 1.8808-0.32073 2.6213-0.85132l17.731 18.749c-1.2631 1.3106-2.059 3.0727-2.1184 5.0247l-22.38 1.1364c-0.32469-2.4787-1.8452-4.5773-3.9675-5.6939l7.0838-18.491c0.3326 0.07523 0.67709 0.12671 1.0295 0.12671zm-33.617-1.4611c1.2908 0 2.5064-0.32469 3.5716-0.89883l13.823 21.418c-1.5324 1.176-2.5975 2.9222-2.8786 4.9258l-29.836-1.8095c4e-3 -0.07919 0.0159-0.15838 0.0159-0.24154 0-2.2015-0.95427-4.1774-2.455-5.5593l13.819-18.951c1.1483 0.70481 2.4946 1.1166 3.9398 1.1166zm-44.775 7.8836c1.279 0.9899 2.8707 1.5838 4.613 1.5838 1.5165 0 2.9262-0.4514 4.1061-1.2196l7.844 9.8159c-1.3582 1.3661-2.2015 3.2508-2.2015 5.3296 0 0.1663 0.0158 0.32865 0.0238 0.49495l-31.665 4.6565c-0.1663-0.57414-0.44347-1.1008-0.81568-1.5561zm-106.85-9.7644c1.4967 0 2.8905-0.43952 4.0626-1.1918l14.389 18.978c-1.5482 1.3819-2.5262 3.3855-2.5262 5.6227 0 0.8434 0.1465 1.6512 0.39992 2.4074l-23.774 10.208c-0.83548-1.6512-2.253-2.9499-3.9834-3.6349l9.8396-32.564c0.51475 0.11483 1.0453 0.17422 1.5918 0.17422zm-52.055 69.186c8.4455-6.4819 23.802-18.242 32.257-24.712 0.95031 1.0493 2.1897 1.8294 3.5914 2.2174l-4.7119 24.074c-0.59394-0.0871-1.1918-0.14255-1.8056-0.14255-5.553 0-10.252 3.6112-11.899 8.6122l-16.344-4.514c0.0879-0.45932 0.14096-0.93447 0.14096-1.4175 0-1.5205-0.45536-2.9301-1.2279-4.118zm8.4704 51.125 15.074-26.04c1.7319 0.90279 3.6951 1.4215 5.7858 1.4215 0.22966 0 0.4514-0.0238 0.67314-0.0356l3.1043 31.187c-2.7123 0.50486-4.9099 2.4585-5.7692 5.0287l-15.732-4.0618c0.07444-0.42011 0.11998-0.84934 0.11998-1.2904 0-2.5734-1.2912-4.8442-3.256-6.2087zm17.096 44.855 7.3003-23.53c0.52267 0.11562 1.0691 0.18135 1.6314 0.18135 0.2257 0 0.44348-0.0135 0.66917-0.0333l6.7828 38.961c-0.82756 0.26332-1.5442 0.75154-2.0867 1.4017l-10.406-6.5013c0.53851-1.041 0.85132-2.2186 0.85132-3.4706 0-3.1764-1.9679-5.8911-4.7424-7.0089zm17.686 141.76c-0.07523-3.1677-2.1026-5.8456-4.9258-6.8897l8.038-28.734c0.46723 0.0883 0.94635 0.14136 1.4413 0.14136 0.57018 0 1.1285-0.0705 1.663-0.19087l10.418 33.256c-1.275 0.60343-2.2293 1.7747-2.5064 3.1998zm28.014-12.453-7.353 10.15c-0.63354-0.3425-1.3463-0.55396-2.1144-0.55396-0.25737 0-0.50287 0.0352-0.75232 0.0776l-10.414-33.256c0.89883-0.36349 1.7145-0.89607 2.4035-1.5593l16.995 15.028c-0.88299 1.2346-1.4057 2.7444-1.4057 4.3778 0 2.2966 1.0255 4.35 2.6411 5.7363zm3.4528-38.989c0 0.19085 0.03168 0.37418 0.05544 0.56108l-19.861 5.313c-0.92655-2.607-3.2469-4.5512-6.0661-4.9424l1.8135-31.338c1.4255-0.0317 2.7559-0.45852 3.8804-1.1816l21.505 28.395c-0.81964 0.81846-1.3265 1.9477-1.3265 3.1926zm96.278-42.619c-0.36825-2.7551-2.2214-5.0374-4.7317-6.0182l6.763-22.523c0.9701 0.23995 1.9758 0.38092 3.0212 0.38092 2.4787 0 4.7832-0.72937 6.7274-1.9707l16.448 23.234c-1.6947 1.2948-2.8192 3.2845-2.9539 5.5458zm10.731 26.649 17.735-21.368c1.2314 0.86399 2.7242 1.372 4.3397 1.372 0.26133 0 0.52267-0.0107 0.77608-0.0388l4.9654 30.357c-2.0788 0.5116-3.821 1.88-4.8228 3.7145l-21.996-9.7541c0.11087-0.39873 0.19402-0.81132 0.19402-1.2453 0-1.1748-0.45931-2.2332-1.1918-3.0374zm11.728 42.887c0-1.8519-0.66521-3.549-1.7779-4.8648l14.765-14.644c0.75629 0.64937 1.6393 1.1502 2.6134 1.4607l-7.8796 33.793c-0.14255-0.0143-0.27718-0.0424-0.42368-0.0424-0.78005 0-1.4967 0.2154-2.1382 0.56422l-7.7648-10.565c1.5918-1.3866 2.6054-3.4219 2.6054-5.7011zm33.546 1.1467-22.946 16.013c-0.46327-0.50485-1.0414-0.89964-1.6947-1.1467l7.8796-33.793c0.36824 0.0562 0.73649 0.0919 1.1166 0.0919 1.9085 0 3.6508-0.71631 4.9812-1.884l11.507 11.137c-1.3463 1.3617-2.1778 3.235-2.1778 5.3023 0 1.5874 0.49495 3.062 1.3344 4.2792zm39.937-219.23c-3.4963 0.66125-6.1374 3.73-6.1374 7.4164 0 0.23758 0.0159 0.47515 0.0356 0.70877l-16.171 2.8668c-0.44347-1.9798-1.6551-3.6626-3.3142-4.7199l18.836-37.117c0.89091 0.36825 1.865 0.57414 2.8866 0.57414 0.19799 0 0.39598-0.0159 0.59-0.0317zm1.4136-0.13859c-0.0673 0-0.13067 8e-3 -0.19798 0.0119l-3.2904-30.366c3.3063-0.80776 5.7612-3.7814 5.7612-7.3332 0-4.1695-3.3815-7.5549-7.551-7.5549-1.6907 0-3.2429 0.56227-4.5021 1.5007l-17.779-18.796c0.62166-0.77212 1.0097-1.7383 1.0097-2.8074 0-2.4906-2.0154-4.51-4.506-4.51-2.0709 0-3.7973 1.4057-4.3279 3.3102l-21.758-2.9341c8e-3 -0.12671 0.0198-0.24946 0.0198-0.37616 0-4.1695-3.3776-7.551-7.551-7.551s-7.5549 3.3815-7.5549 7.551c0 0.41576 0.0436 0.81568 0.10691 1.2116l-25.476 6.1097c-0.92655-3.1241-3.8092-5.4088-7.2382-5.4088-4.1734 0-7.551 3.3855-7.551 7.5549 0 0.47515 0.0475 0.93447 0.13066 1.3819l-18.816 4.5417c-0.65729-1.6789-2.2807-2.8747-4.1932-2.8747-1.9521 0-3.5993 1.2473-4.2249 2.9855l-17.973-3.8646c0.0396-0.32073 0.0673-0.64938 0.0673-0.98594 0-4.1695-3.3815-7.551-7.551-7.551-3.3419 0-6.1691 2.1699-7.1708 5.1752l-36.729-8.9646c0.06336-0.38804 0.10691-0.784 0.10691-1.1918 0-4.1695-3.3855-7.5549-7.5589-7.5549-4.1734 0-7.551 3.3855-7.551 7.5549 0 0.48307 0.04751 0.95427 0.13859 1.4136l-19.704 5.4365c-0.70204-1.5799-2.2756-2.6886-4.1168-2.6886-2.4906 0-4.5088 2.0194-4.5088 4.51 0 1.2116 0.48703 2.3124 1.2702 3.1241l-11.684 15.902c-1.0513-0.55434-2.2506-0.87111-3.5209-0.87111-4.1734 0-7.5565 3.3815-7.5565 7.551 0 3.2984 2.1204 6.0978 5.0659 7.1273l-5.528 31.835c-0.2257-0.0238-0.45496-0.0356-0.68778-0.0356-4.1699 0-7.553 3.3815-7.553 7.555 0 4.1695 3.3831 7.551 7.553 7.551 0.29262 0 0.5785-0.0198 0.86082-0.0515l7.5953 38.449c-3.1788 0.89289-5.5106 3.8032-5.5106 7.2663 0 4.1711 3.3831 7.5534 7.553 7.5534 0.79747 0 1.5629-0.12394 2.2827-0.35161l12.94 31.696c-2.4835 1.239-4.1944 3.7957-4.1944 6.7579 0 3.5724 2.4835 6.5599 5.8175 7.3451l-4.879 32.579c-0.16947-0.0107-0.33855-0.0246-0.51158-0.0246-4.1734 0-7.5565 3.3831-7.5565 7.5526 0 4.1703 3.3831 7.5534 7.5565 7.5534 0.22926 0 0.45536-0.0143 0.68105-0.0356l6.0744 35.14c-3.2596 0.83628-5.6761 3.789-5.6761 7.3094 0 4.1734 3.3831 7.5565 7.553 7.5565 0.55751 0 1.0972-0.0669 1.6159-0.17976l7.0608 23.128c-2.7955 1.1111-4.7753 3.8309-4.7753 7.02 0 4.1734 3.3815 7.553 7.5549 7.553 1.2077 0 2.3481-0.28906 3.3617-0.79351l10.022 16.711c-0.79984 0.8145-1.2908 1.926-1.2908 3.1534 0 2.4874 2.0154 4.5088 4.5021 4.5088 1.7937 0 3.334-1.0548 4.0586-2.5718l12.045 2.8469c0.14651 2.3599 2.0828 4.2297 4.4783 4.2297 2.4866 0 4.506-2.0178 4.506-4.5048 0-1.4112-0.66126-2.6529-1.671-3.4785l3.4053-9.9553c0.28509 0.0562 0.57414 0.0879 0.86716 0.0879 2.4906 0 4.51-2.0178 4.51-4.5048 0-2.466-1.9838-4.4625-4.4387-4.5013l-2.3837-19.756c3.4488-0.70204 6.0463-3.7502 6.0463-7.4049 0-3.7288-2.7044-6.8224-6.2601-7.4366l1.9442-21.329c2.3995-0.10216 4.316-2.0638 4.316-4.4874 0-1.8622-1.1285-3.4607-2.7401-4.1485l5.9711-21.855c0.4514 0.0847 0.91863 0.13423 1.3938 0.13423 4.1734 0 7.5589-3.3831 7.5589-7.553 0-1.8662-0.68106-3.5736-1.8096-4.8897l20.408-20.415c0.75629 0.57494 1.6868 0.92774 2.7163 0.92774 2.3362 0 4.2368-1.7886 4.4625-4.0677l17.501-0.68424c0.26133 2.2404 2.1461 3.9865 4.4585 3.9865 1.0137 0 1.9442-0.34924 2.6925-0.91744l11.645 12.735c-1.2512 1.3479-2.0234 3.1503-2.0234 5.14 0 4.1699 3.3776 7.553 7.551 7.553 1.0374 0 2.0313-0.21184 2.9301-0.58919l9.3684 18.034c-1.1522 0.81488-1.9125 2.1556-1.9125 3.6761 0 2.487 2.0194 4.5084 4.51 4.5084 0.0792 0 0.14651-0.0214 0.22174-0.025l5.2821 28.085c-3.2073 0.87508-5.5672 3.7997-5.5672 7.2813 0 3.6266 2.5579 6.6569 5.9671 7.3835l-3.2746 24.92c-2.3203 0.18728-4.1536 2.1061-4.1536 4.4732 0 2.491 2.0194 4.5088 4.51 4.5088 0.14255 0 0.28113-0.0285 0.42368-0.0424l3.0925 9.92c-1.2037 0.81132-1.9956 2.1837-1.9956 3.743 0 2.4871 2.0154 4.5084 4.506 4.5084 2.2609 0 4.1101-1.6686 4.4387-3.8345l8.7072-0.86796c0.69293 1.5981 2.2807 2.7199 4.1338 2.7199 2.4906 0 4.51-2.0178 4.51-4.5048 0-0.87151-0.25737-1.6793-0.68897-2.3674l8.0103-10.093c1.0295 0.51832 2.1818 0.81843 3.4132 0.81843 4.1695 0 7.551-3.3831 7.551-7.553 0-2.7377-1.4611-5.1332-3.6428-6.4562l8.0261-22.983c0.43556 0.0776 0.883 0.12712 1.3384 0.12712 4.1734 0 7.5549-3.3831 7.5549-7.553 0-3.3443-2.1738-6.1738-5.1792-7.1685l5.9632-40.072c0.17026 0.0107 0.3326 0.0246 0.50287 0.0246 4.1734 0 7.5589-3.3831 7.5589-7.553 0-4.1132-3.2944-7.454-7.3847-7.5458l-2.1105-36.231c3.6745-0.51 6.5096-3.6571 6.5096-7.4734 0-2.9285-1.671-5.4619-4.1101-6.7155l14.734-35.51c0.73253 0.23599 1.5126 0.36745 2.3203 0.36745 4.1734 0 7.5549-3.3823 7.5549-7.5546 0-3.5367-2.4352-6.4977-5.7177-7.3189l6.2879-37.261c0.21381 0.0159 0.42765 0.0317 0.64542 0.0317 4.1734 0 7.5549-3.3815 7.5549-7.5549s-3.3815-7.5549-7.5549-7.5549" style="fill:#093061"/>
 </g>
</svg>
